<?xml version="1.0" encoding="UTF-8" standalone="no"?>
<!DOCTYPE svg PUBLIC "-//W3C//DTD SVG 1.0//EN" "http://www.w3.org/TR/2001/REC-SVG-20010904/DTD/svg10.dtd">
<!-- Generated by Microsoft Visio 11.0, SVG Export, v1.0 SD-WAN Demo Revised1.svg Page-1 -->
<svg xmlns="http://www.w3.org/2000/svg" xmlns:xlink="http://www.w3.org/1999/xlink" xmlns:ev="http://www.w3.org/2001/xml-events"
		xmlns:v="http://schemas.microsoft.com/visio/2003/SVGExtensions/" width="3.81431in" height="3.83773in"
		viewBox="0 0 274.631 276.317" xml:space="preserve" color-interpolation-filters="sRGB" class="st14">
	<v:documentProperties v:langID="1033" v:viewMarkup="false"/>

	<style type="text/css">
	<![CDATA[
		.st1 {fill:#ffffff;stroke:none;stroke-linecap:butt;stroke-width:0.75}
		.st2 {fill:#808080;stroke:none;stroke-linecap:butt;stroke-width:0.75}
		.st3 {fill:#76a797;stroke:none;stroke-linecap:butt;stroke-width:0.75}
		.st4 {fill:#edc87e;stroke:none;stroke-linecap:butt;stroke-width:0.75}
		.st5 {fill:#000000;stroke:none;stroke-linecap:butt;stroke-width:0.75}
		.st6 {fill:#4d82b8;stroke:none;stroke-linecap:butt;stroke-width:0.75}
		.st7 {fill:#923931;stroke:none;stroke-linecap:butt;stroke-width:0.75}
		.st8 {stroke:#548bd4;stroke-linecap:round;stroke-linejoin:round;stroke-width:1}
		.st9 {stroke:#000000;stroke-linecap:round;stroke-linejoin:round;stroke-width:0.75}
		.st10 {stroke:#789440;stroke-linecap:round;stroke-linejoin:round;stroke-width:1.5}
		.st11 {fill:#4d85b6;stroke:none;stroke-linecap:butt;stroke-width:0.75}
		.st12 {fill:#d55d44;stroke:none;stroke-linecap:butt;stroke-width:0.75}
		.st13 {fill:#77a697;stroke:none;stroke-linecap:butt;stroke-width:0.75}
		.st14 {fill:none;fill-rule:evenodd;font-size:12px;overflow:visible;stroke-linecap:square;stroke-miterlimit:3}
	]]>
	</style>

	<g v:mID="0" v:index="1" v:groupContext="foregroundPage">
		<title>Page-1</title>
		<v:pageProperties v:drawingScale="1" v:pageScale="1" v:drawingUnits="0" v:shadowOffsetX="9" v:shadowOffsetY="-9"/>
		<v:layer v:name="symbols" v:index="0"/>
		<g id="group470-1" transform="translate(91.9586,-214.135)" v:mID="470" v:groupContext="group">
			<title>Cloud, Public</title>
		</g>
		<g id="group475-2" transform="translate(0.75,-0.75)" v:mID="475" v:groupContext="group">
			<title>IP-PBX</title>
			<g id="group476-3" transform="translate(3.15747E-013,-18)" v:mID="476" v:groupContext="group">
				<title>Layer_2</title>
				<g id="shape477-4" v:mID="477" v:groupContext="shape">
					<title>Sheet.477</title>
					<path d="M3.75 276.32 C1.68 276.32 -0 274.63 0 272.57 L0 265.82 C-0 264.28 0.96 262.66 2.25 262.07 L10.5 253.82
								 L51.75 253.82 L60 262.07 C61.28 262.68 62.25 264.3 62.25 265.82 L62.25 272.57 C62.25 274.63 60.57
								 276.32 58.5 276.32 L3.75 276.32 Z" class="st1"/>
				</g>
				<g id="shape478-6" v:mID="478" v:groupContext="shape" transform="translate(1.5,-1.5)">
					<title>Sheet.478</title>
					<path d="M59.28 274.07 C59.28 275.31 58.27 276.32 57.03 276.32 L2.25 276.32 C1.01 276.32 -0 275.31 0 274.07 L0
								 267.32 C0 266.07 1.01 265.07 2.25 265.07 L57.03 265.07 C58.27 265.07 59.28 266.07 59.28 267.32 L59.28
								 274.07 Z" class="st2"/>
				</g>
				<g id="shape479-8" v:mID="479" v:groupContext="shape" transform="translate(3,-3)">
					<title>Sheet.479</title>
					<path d="M0.75 276.32 C0.34 276.32 -0 275.98 0 275.57 L0 268.82 C-0 268.4 0.34 268.07 0.75 268.07 L55.5 268.07
								 C55.91 268.07 56.25 268.4 56.25 268.82 L56.25 275.57 C56.25 275.98 55.91 276.32 55.5 276.32 L0.75
								 276.32 Z" class="st1"/>
				</g>
				<g id="shape480-10" v:mID="480" v:groupContext="shape" transform="translate(4.5,-14.25)">
					<title>Sheet.480</title>
					<path d="M53.12 276.32 L0 276.32 L6.75 269.57 L46.37 269.57 L53.12 276.32 Z" class="st2"/>
				</g>
				<g id="shape481-12" v:mID="481" v:groupContext="shape" transform="translate(5.25,-6)">
					<title>Sheet.481</title>
					<ellipse cx="1.125" cy="275.192" rx="1.125" ry="1.125" class="st3"/>
				</g>
				<g id="shape482-14" v:mID="482" v:groupContext="shape" transform="translate(9.75,-6)">
					<title>Sheet.482</title>
					<ellipse cx="1.125" cy="275.192" rx="1.125" ry="1.125" class="st4"/>
				</g>
				<g id="shape483-16" v:mID="483" v:groupContext="shape" transform="translate(14.25,-6)">
					<title>Sheet.483</title>
					<ellipse cx="1.125" cy="275.192" rx="1.125" ry="1.125" class="st3"/>
				</g>
				<g id="shape484-18" v:mID="484" v:groupContext="shape" transform="translate(53.25,-5.25)">
					<title>Sheet.484</title>
					<ellipse cx="1.875" cy="274.442" rx="1.875" ry="1.875" class="st3"/>
				</g>
				<g id="shape485-20" v:mID="485" v:groupContext="shape" transform="translate(19.5,-4.5)">
					<title>Sheet.485</title>
					<path d="M4.5 274.82 L4.5 276.32 L1.5 276.32 L1.5 274.82 L0 274.82 L0 271.07 L6 271.07 L6 274.82 L4.5 274.82 Z"
							class="st5"/>
				</g>
				<g id="shape486-22" v:mID="486" v:groupContext="shape" transform="translate(27.75,-4.5)">
					<title>Sheet.486</title>
					<path d="M4.5 274.82 L4.5 276.32 L1.5 276.32 L1.5 274.82 L0 274.82 L0 271.07 L6 271.07 L6 274.82 L4.5 274.82 Z"
							class="st5"/>
				</g>
			</g>
			<g id="group487-24" transform="translate(-3.23741E-013,-30.75)" v:mID="487" v:groupContext="group">
				<title>Sheet.487</title>
				<g id="shape488-25" v:mID="488" v:groupContext="shape">
					<title>Sheet.488</title>
					<path d="M4 276.32 C1.79 276.32 0 274.52 0 272.32 L0 249.57 C0 247.62 1.54 245.57 3 245.57 L30.25 245.57 C33.7
								 245.57 35.25 247.58 35.25 249.57 L35.25 272.32 C35.25 274.52 33.46 276.32 31.25 276.32 L4 276.32
								 Z" class="st1"/>
				</g>
				<g id="shape489-27" v:mID="489" v:groupContext="shape" transform="translate(1.5,-1.5)">
					<title>Sheet.489</title>
					<path d="M32.25 273.82 C32.25 275.2 31.13 276.32 29.75 276.32 L2.5 276.32 C1.12 276.32 -0 275.2 0 273.82 L0 251.07
								 C-0 249.69 1.12 248.57 1.5 248.57 L28.75 248.57 C31.13 248.57 32.25 249.69 32.25 251.07 L32.25 273.82
								 Z" class="st2"/>
				</g>
				<g id="shape490-29" v:mID="490" v:groupContext="shape" transform="translate(3,-3)">
					<title>Sheet.490</title>
					<path d="M4 276.32 C1.79 276.32 -0 274.53 0 272.34 L0 250.29 C0 248.1 1.79 246.32 4 246.32 L6.5 246.32 C8.71
								 246.32 10.5 248.1 10.5 250.29 L10.5 272.34 C10.5 274.53 8.71 276.32 6.5 276.32 L4 276.32 Z"
							class="st1"/>
				</g>
				<g id="shape491-31" v:mID="491" v:groupContext="shape" transform="translate(4.5,-4.5)">
					<title>Sheet.491</title>
					<path d="M7.5 273.84 C7.5 275.21 6.38 276.32 5 276.32 L2.5 276.32 C1.12 276.32 0 275.21 0 273.84 L0 251.79 C-0
								 250.43 1.12 249.32 2.5 249.32 L5 249.32 C6.38 249.32 7.5 250.43 7.5 251.79 L7.5 273.84 Z"
							class="st2"/>
				</g>
				<g id="shape492-33" v:mID="492" v:groupContext="shape" transform="translate(15.75,-19.5)">
					<title>Sheet.492</title>
					<rect x="0" y="268.067" width="15" height="8.25" class="st1"/>
				</g>
				<g id="shape493-35" v:mID="493" v:groupContext="shape" transform="translate(17.25,-21)">
					<title>Sheet.493</title>
					<rect x="0" y="271.067" width="12" height="5.25" class="st6"/>
				</g>
				<g id="group494-37" transform="translate(17.25,-14.25)" v:mID="494" v:groupContext="group">
					<title>Sheet.494</title>
					<g id="shape495-38" v:mID="495" v:groupContext="shape">
						<title>Sheet.495</title>
						<rect x="0" y="273.317" width="3" height="3" class="st1"/>
					</g>
					<g id="shape496-40" v:mID="496" v:groupContext="shape" transform="translate(9,0)">
						<title>Sheet.496</title>
						<rect x="0" y="273.317" width="3" height="3" class="st1"/>
					</g>
					<g id="shape497-42" v:mID="497" v:groupContext="shape" transform="translate(4.5,0)">
						<title>Sheet.497</title>
						<rect x="0" y="273.317" width="3" height="3" class="st1"/>
					</g>
				</g>
				<g id="group498-44" transform="translate(17.25,-9.75)" v:mID="498" v:groupContext="group">
					<title>Sheet.498</title>
					<g id="shape499-45" v:mID="499" v:groupContext="shape">
						<title>Sheet.499</title>
						<rect x="0" y="273.317" width="3" height="3" class="st1"/>
					</g>
					<g id="shape500-47" v:mID="500" v:groupContext="shape" transform="translate(9,0)">
						<title>Sheet.500</title>
						<rect x="0" y="273.317" width="3" height="3" class="st1"/>
					</g>
					<g id="shape501-49" v:mID="501" v:groupContext="shape" transform="translate(4.5,0)">
						<title>Sheet.501</title>
						<rect x="0" y="273.317" width="3" height="3" class="st1"/>
					</g>
				</g>
				<g id="group502-51" transform="translate(17.25,-5.25)" v:mID="502" v:groupContext="group">
					<title>Sheet.502</title>
					<g id="shape503-52" v:mID="503" v:groupContext="shape">
						<title>Sheet.503</title>
						<rect x="0" y="273.317" width="3" height="3" class="st1"/>
					</g>
					<g id="shape504-54" v:mID="504" v:groupContext="shape" transform="translate(9,0)">
						<title>Sheet.504</title>
						<rect x="0" y="273.317" width="3" height="3" class="st1"/>
					</g>
					<g id="shape505-56" v:mID="505" v:groupContext="shape" transform="translate(4.5,0)">
						<title>Sheet.505</title>
						<rect x="0" y="273.317" width="3" height="3" class="st1"/>
					</g>
				</g>
			</g>
			<g id="group506-58" transform="translate(36,0)" v:mID="506" v:groupContext="group">
				<title>Layer_3</title>
				<g id="shape507-59" v:mID="507" v:groupContext="shape">
					<title>white_sq</title>
					<rect x="0" y="248.567" width="27.75" height="27.75" class="st1"/>
				</g>
				<g id="shape508-61" v:mID="508" v:groupContext="shape" transform="translate(15,-1.5)">
					<title>Sheet.508</title>
					<path d="M2.25 265.07 L8.26 271.07 L8.25 265.07 L11.25 268.07 L11.25 276.32 L3 276.31 L0 273.32 L6 273.32 L0
								 267.32 L2.25 265.07 Z" class="st3"/>
				</g>
				<g id="shape509-63" v:mID="509" v:groupContext="shape" transform="translate(1.5,-1.5)">
					<title>Sheet.509</title>
					<path d="M11.25 267.32 L5.25 273.32 L11.25 273.32 L8.25 276.31 L0 276.32 L0 268.07 L3 265.07 L3 271.07 L9 265.07
								 L11.25 267.32 Z" class="st3"/>
				</g>
				<g id="shape510-65" v:mID="510" v:groupContext="shape" transform="translate(15,-15)">
					<title>Sheet.510</title>
					<path d="M0 274.07 L6 268.07 L0 268.07 L3 265.07 L11.25 265.07 L11.25 273.32 L8.25 276.32 L8.26 270.32 L2.25
								 276.32 L0 274.07 Z" class="st3"/>
				</g>
				<g id="shape511-67" v:mID="511" v:groupContext="shape" transform="translate(1.5,-15)">
					<title>Sheet.511</title>
					<path d="M9 276.32 L3 270.32 L3 276.32 L0 273.32 L0 265.07 L8.25 265.07 L11.25 268.07 L5.25 268.07 L11.25 274.07
								 L9 276.32 Z" class="st3"/>
				</g>
			</g>
		</g>
		<g id="group41-69" transform="translate(176.55,-19.0481)" v:mID="41" v:groupContext="group">
			<title>IP-PBX.487</title>
			<g id="shape42-70" v:mID="42" v:groupContext="shape">
				<title>Sheet.42</title>
				<path d="M4 276.32 C1.79 276.32 0 274.52 0 272.32 L0 249.57 C0 247.62 1.54 245.57 3 245.57 L30.25 245.57 C33.7 245.57
							 35.25 247.58 35.25 249.57 L35.25 272.32 C35.25 274.52 33.46 276.32 31.25 276.32 L4 276.32 Z"
						class="st1"/>
			</g>
			<g id="shape43-72" v:mID="43" v:groupContext="shape" transform="translate(1.5,-1.5)">
				<title>Sheet.43</title>
				<path d="M32.25 273.82 C32.25 275.2 31.13 276.32 29.75 276.32 L2.5 276.32 C1.12 276.32 -0 275.2 0 273.82 L0 251.07
							 C-0 249.69 1.12 248.57 1.5 248.57 L28.75 248.57 C31.13 248.57 32.25 249.69 32.25 251.07 L32.25 273.82
							 Z" class="st2"/>
			</g>
			<g id="shape44-74" v:mID="44" v:groupContext="shape" transform="translate(3,-3)">
				<title>Sheet.44</title>
				<path d="M4 276.32 C1.79 276.32 -0 274.53 0 272.34 L0 250.29 C0 248.1 1.79 246.32 4 246.32 L6.5 246.32 C8.71 246.32
							 10.5 248.1 10.5 250.29 L10.5 272.34 C10.5 274.53 8.71 276.32 6.5 276.32 L4 276.32 Z" class="st1"/>
			</g>
			<g id="shape45-76" v:mID="45" v:groupContext="shape" transform="translate(4.5,-4.5)">
				<title>Sheet.45</title>
				<path d="M7.5 273.84 C7.5 275.21 6.38 276.32 5 276.32 L2.5 276.32 C1.12 276.32 0 275.21 0 273.84 L0 251.79 C-0 250.43
							 1.12 249.32 2.5 249.32 L5 249.32 C6.38 249.32 7.5 250.43 7.5 251.79 L7.5 273.84 Z" class="st2"/>
			</g>
			<g id="shape46-78" v:mID="46" v:groupContext="shape" transform="translate(15.75,-19.5)">
				<title>Sheet.46</title>
				<rect x="0" y="268.067" width="15" height="8.25" class="st1"/>
			</g>
			<g id="shape47-80" v:mID="47" v:groupContext="shape" transform="translate(17.25,-21)">
				<title>Sheet.47</title>
				<rect x="0" y="271.067" width="12" height="5.25" class="st6"/>
			</g>
			<g id="group48-82" transform="translate(17.25,-14.25)" v:mID="48" v:groupContext="group">
				<title>Sheet.48</title>
				<g id="shape49-83" v:mID="49" v:groupContext="shape">
					<title>Sheet.49</title>
					<rect x="0" y="273.317" width="3" height="3" class="st1"/>
				</g>
				<g id="shape50-85" v:mID="50" v:groupContext="shape" transform="translate(9,0)">
					<title>Sheet.50</title>
					<rect x="0" y="273.317" width="3" height="3" class="st1"/>
				</g>
				<g id="shape51-87" v:mID="51" v:groupContext="shape" transform="translate(4.5,0)">
					<title>Sheet.51</title>
					<rect x="0" y="273.317" width="3" height="3" class="st1"/>
				</g>
			</g>
			<g id="group52-89" transform="translate(17.25,-9.75)" v:mID="52" v:groupContext="group">
				<title>Sheet.52</title>
				<g id="shape53-90" v:mID="53" v:groupContext="shape">
					<title>Sheet.53</title>
					<rect x="0" y="273.317" width="3" height="3" class="st1"/>
				</g>
				<g id="shape54-92" v:mID="54" v:groupContext="shape" transform="translate(9,0)">
					<title>Sheet.54</title>
					<rect x="0" y="273.317" width="3" height="3" class="st1"/>
				</g>
				<g id="shape55-94" v:mID="55" v:groupContext="shape" transform="translate(4.5,0)">
					<title>Sheet.55</title>
					<rect x="0" y="273.317" width="3" height="3" class="st1"/>
				</g>
			</g>
			<g id="group56-96" transform="translate(17.25,-5.25)" v:mID="56" v:groupContext="group">
				<title>Sheet.56</title>
				<g id="shape57-97" v:mID="57" v:groupContext="shape">
					<title>Sheet.57</title>
					<rect x="0" y="273.317" width="3" height="3" class="st1"/>
				</g>
				<g id="shape58-99" v:mID="58" v:groupContext="shape" transform="translate(9,0)">
					<title>Sheet.58</title>
					<rect x="0" y="273.317" width="3" height="3" class="st1"/>
				</g>
				<g id="shape59-101" v:mID="59" v:groupContext="shape" transform="translate(4.5,0)">
					<title>Sheet.59</title>
					<rect x="0" y="273.317" width="3" height="3" class="st1"/>
				</g>
			</g>
		</g>
		<g id="group60-103" transform="translate(226.95,-16.0481)" v:mID="60" v:groupContext="group" v:layerMember="0">
			<title>Device, Phone, Digital</title>
			<g id="group61-104" v:mID="61" v:groupContext="group" v:layerMember="0">
				<title>Sheet.61</title>
				<g id="shape62-105" v:mID="62" v:groupContext="shape" v:layerMember="0">
					<title>Sheet.62</title>
					<path d="M37 240.59 L13.91 240.59 C12.58 240.59 11.37 241.22 10.62 242.26 C10.1 241.68 9.41 241.22 8.54 240.93
								 C7.62 240.64 7.1 240.59 5.83 240.59 C4.56 240.59 4.04 240.64 3.12 240.93 C1.27 241.51 0.17 242.84
								 0.06 244.74 C0 245.38 0.06 246.18 0.12 247.69 C0.17 249.71 0.29 253.05 0.29 258.83 C0.29 263.44
								 0.17 266.5 0.12 268.47 C0.06 270.08 -0 271.18 0.06 272.04 C0.17 274.01 1.33 275.39 3.17 275.91 C4.1
								 276.2 4.91 276.32 5.77 276.32 C6.7 276.32 7.62 276.2 8.54 275.91 C9.41 275.68 10.16 275.22 10.68
								 274.58 C11.43 275.62 12.58 276.26 13.97 276.26 L37.06 276.26 C39.31 276.26 41.1 274.47 41.1 272.22
								 L41.1 244.63 C41.04 242.37 39.25 240.59 37 240.59 Z" class="st1"/>
				</g>
				<g id="shape63-107" v:mID="63" v:groupContext="shape" v:layerMember="0" transform="translate(1.67402,-1.67402)">
					<title>Sheet.63</title>
					<path d="M8.2 246.59 C8.08 245.32 7.45 244.63 6.35 244.28 C5.66 244.05 5.31 243.99 4.16 243.99 C3 243.99 2.66
								 244.05 1.96 244.28 C0.87 244.63 0.17 245.32 0.12 246.59 C0 247.97 0.35 250.8 0.35 260.56 C0.35 268.81
								 -0 271.81 0.12 273.72 C0.17 274.99 0.87 275.74 1.96 276.03 C2.66 276.2 3.35 276.32 4.1 276.32 C4.85
								 276.32 5.66 276.2 6.41 276.03 C7.5 275.74 8.2 274.99 8.25 273.72 C8.37 271.81 8.08 268.99 8.08 260.73
								 C8.02 250.98 8.31 247.97 8.2 246.59 Z" class="st7"/>
				</g>
				<g id="shape64-109" v:mID="64" v:groupContext="shape" v:layerMember="0" transform="translate(11.6027,-1.67402)">
					<title>Sheet.64</title>
					<path d="M25.4 243.99 L2.31 243.99 C1.04 243.99 -0 245.03 0 246.3 L0 274.01 C-0 275.28 1.04 276.32 2.31 276.32
								 L25.4 276.32 C26.67 276.32 27.71 275.28 27.71 274.01 L27.71 246.3 C27.71 245.03 26.67 243.99 25.4
								 243.99 ZM9.81 268.81 C9.81 269.16 9.58 269.39 9.24 269.39 L6.35 269.39 C6 269.39 5.77 269.16 5.77
								 268.81 L5.77 267.66 C5.77 267.31 6 267.08 6.35 267.08 L9.24 267.08 C9.58 267.08 9.81 267.31 9.81
								 267.66 L9.81 268.81 ZM9.81 264.77 C9.81 265.12 9.58 265.35 9.24 265.35 L6.35 265.35 C6 265.35 5.77
								 265.12 5.77 264.77 L5.77 263.62 C5.77 263.27 6 263.04 6.35 263.04 L9.24 263.04 C9.58 263.04 9.81
								 263.27 9.81 263.62 L9.81 264.77 ZM9.81 260.73 C9.81 261.08 9.58 261.31 9.24 261.31 L6.35 261.31
								 C6 261.31 5.77 261.08 5.77 260.73 L5.77 259.58 C5.77 259.23 6 259 6.35 259 L9.24 259 C9.58 259 9.81
								 259.23 9.81 259.58 L9.81 260.73 ZM15.59 268.81 C15.59 269.16 15.35 269.39 15.01 269.39 L12.12 269.39
								 C11.78 269.39 11.54 269.16 11.54 268.81 L11.54 267.66 C11.54 267.31 11.78 267.08 12.12 267.08 L15.01
								 267.08 C15.35 267.08 15.59 267.31 15.59 267.66 L15.59 268.81 ZM15.59 264.77 C15.59 265.12 15.35
								 265.35 15.01 265.35 L12.12 265.35 C11.78 265.35 11.54 265.12 11.54 264.77 L11.54 263.62 C11.54 263.27
								 11.78 263.04 12.12 263.04 L15.01 263.04 C15.35 263.04 15.59 263.27 15.59 263.62 L15.59 264.77 ZM15.59
								 260.73 C15.59 261.08 15.35 261.31 15.01 261.31 L12.12 261.31 C11.78 261.31 11.54 261.08 11.54 260.73
								 L11.54 259.58 C11.54 259.23 11.78 259 12.12 259 L15.01 259 C15.35 259 15.59 259.23 15.59 259.58
								 L15.59 260.73 ZM21.36 268.81 C21.36 269.16 21.13 269.39 20.78 269.39 L17.89 269.39 C17.55 269.39
								 17.32 269.16 17.32 268.81 L17.32 267.66 C17.32 267.31 17.55 267.08 17.89 267.08 L20.78 267.08 C21.13
								 267.08 21.36 267.31 21.36 267.66 L21.36 268.81 ZM21.36 264.77 C21.36 265.12 21.13 265.35 20.78 265.35
								 L17.89 265.35 C17.55 265.35 17.32 265.12 17.32 264.77 L17.32 263.62 C17.32 263.27 17.55 263.04 17.89
								 263.04 L20.78 263.04 C21.13 263.04 21.36 263.27 21.36 263.62 L21.36 264.77 ZM21.36 260.73 C21.36
								 261.08 21.13 261.31 20.78 261.31 L17.89 261.31 C17.55 261.31 17.32 261.08 17.32 260.73 L17.32 259.58
								 C17.32 259.23 17.55 259 17.89 259 L20.78 259 C21.13 259 21.36 259.23 21.36 259.58 L21.36 260.73
								 ZM23.09 254.38 C23.09 254.73 22.86 254.96 22.51 254.96 L5.2 254.96 C4.85 254.96 4.62 254.73 4.62
								 254.38 L4.62 248.03 C4.62 247.69 4.85 247.45 5.2 247.45 L22.51 247.45 C22.86 247.45 23.09 247.69
								 23.09 248.03 L23.09 254.38 Z" class="st7"/>
				</g>
			</g>
		</g>
		<g id="shape110-111" v:mID="110" v:groupContext="shape" transform="translate(-250.179,142.058) rotate(-74.8942)">
			<title>Sheet.110</title>
			<path d="M0 276.32 L45.99 276.32" class="st8"/>
		</g>
		<g id="shape111-114" v:mID="111" v:groupContext="shape" transform="translate(-230.881,263.683) rotate(-95.9445)">
			<title>Sheet.111</title>
			<path d="M0 276.32 L69.52 276.32" class="st8"/>
		</g>
		<g id="shape112-117" v:mID="112" v:groupContext="shape" transform="translate(275.335,29.7813) rotate(45)">
			<title>Sheet.112</title>
			<path d="M0 276.32 L6.36 276.32" class="st9"/>
		</g>
		<g id="shape113-120" v:mID="113" v:groupContext="shape" transform="translate(-77.1829,185.352) rotate(-81.432)">
			<title>Sheet.113</title>
			<path d="M0 276.32 L58.4 276.32" class="st8"/>
		</g>
		<g id="shape114-123" v:mID="114" v:groupContext="shape" transform="translate(-0.747277,353.2) rotate(-116.541)">
			<title>Sheet.114</title>
			<path d="M0 276.32 L68.14 276.32" class="st8"/>
		</g>
		<g id="shape109-126" v:mID="109" v:groupContext="shape" transform="translate(323.511,241.644) rotate(131.59)">
			<title>Sheet.109</title>
			<path d="M-0 276.32 A90.8283 42.5345 7.49 0 1 124.74 276.32" class="st10"/>
		</g>
		<g id="shape108-129" v:mID="108" v:groupContext="shape" transform="translate(347.165,231.973) rotate(128.611)">
			<title>Sheet.108</title>
			<path d="M0 276.32 A93.5393 61.066 14.67 0 1 126.92 276.32" class="st10"/>
		</g>
		<g id="shape116-132" v:mID="116" v:groupContext="shape" transform="translate(-68.2265,252.028) rotate(-110.999)">
			<title>Sheet.116</title>
			<path d="M0 276.32 A75.2946 42.3419 10.37 0 1 102.94 276.32" class="st10"/>
		</g>
		<g id="shape117-135" v:mID="117" v:groupContext="shape" transform="translate(-42.9213,258.163) rotate(-113.514)">
			<title>Sheet.117</title>
			<path d="M-0 276.32 A72.6927 42.2883 11.13 0 1 99.25 276.32" class="st10"/>
		</g>
		<g id="group512-138" transform="translate(1.65,-103.198)" v:mID="512" v:groupContext="group">
			<title>Load Balancer</title>
			<g id="group513-139" v:mID="513" v:groupContext="group">
				<title>Sheet.513</title>
				<g id="group514-140" v:mID="514" v:groupContext="group">
					<title>Sheet.514</title>
					<g id="shape515-141" v:mID="515" v:groupContext="shape">
						<title>Sheet.515</title>
						<path d="M60.42 262.61 L51.62 253.81 L10.63 253.81 L1.83 262.61 C0.74 263.26 -0 264.45 0 265.82 L0 272.57
									 C0 274.63 1.68 276.32 3.75 276.32 L58.5 276.32 C60.57 276.32 62.25 274.63 62.25 272.57 L62.25
									 265.82 C62.25 264.45 61.51 263.26 60.42 262.61 Z" class="st1"/>
					</g>
					<g id="shape516-143" v:mID="516" v:groupContext="shape" transform="translate(1.50075,-1.5015)">
						<title>Sheet.516</title>
						<path d="M59.25 274.07 C59.25 275.31 58.24 276.32 57 276.32 L2.25 276.32 C1.01 276.32 0 275.31 0 274.07 L0
									 267.32 C-0 266.07 1.01 265.07 2.25 265.07 L57 265.07 C58.24 265.07 59.25 266.07 59.25 267.32
									 L59.25 274.07 Z" class="st11"/>
					</g>
					<g id="shape517-145" v:mID="517" v:groupContext="shape" transform="translate(3.00225,-3.003)">
						<title>Sheet.517</title>
						<path d="M0.75 276.32 C0.34 276.32 -0 275.98 0 275.57 L0 268.82 C0 268.4 0.34 268.07 0.75 268.07 L55.5 268.07
									 C55.91 268.07 56.25 268.4 56.25 268.82 L56.25 275.57 C56.25 275.98 55.91 276.32 55.5 276.32
									 L0.75 276.32 Z" class="st1"/>
					</g>
					<g id="shape518-147" v:mID="518" v:groupContext="shape" transform="translate(4.50075,-14.2515)">
						<title>Sheet.518</title>
						<path d="M53.25 276.32 L46.5 269.57 L6.75 269.57 L0 276.32 L53.25 276.32 Z" class="st11"/>
					</g>
				</g>
				<g id="group519-149" transform="translate(19.5007,-4.5015)" v:mID="519" v:groupContext="group">
					<title>Sheet.519</title>
					<g id="shape520-150" v:mID="520" v:groupContext="shape">
						<title>Sheet.520</title>
						<path d="M6 271.07 L0 271.07 L0 274.82 L1.5 274.82 L1.5 276.32 L4.5 276.32 L4.5 274.82 L6 274.82 L6 271.07
									 Z" class="st5"/>
					</g>
					<g id="shape521-152" v:mID="521" v:groupContext="shape" transform="translate(8.25,0)">
						<title>Sheet.521</title>
						<path d="M6 271.07 L0 271.07 L0 274.82 L1.5 274.82 L1.5 276.32 L4.5 276.32 L4.5 274.82 L6 274.82 L6 271.07
									 Z" class="st5"/>
					</g>
					<g id="shape522-154" v:mID="522" v:groupContext="shape" transform="translate(16.5,0)">
						<title>Sheet.522</title>
						<path d="M6 271.07 L0 271.07 L0 274.82 L1.5 274.82 L1.5 276.32 L4.5 276.32 L4.5 274.82 L6 274.82 L6 271.07
									 Z" class="st5"/>
					</g>
					<g id="shape523-156" v:mID="523" v:groupContext="shape" transform="translate(24.75,0)">
						<title>Sheet.523</title>
						<path d="M6 271.07 L0 271.07 L0 274.82 L1.5 274.82 L1.5 276.32 L4.5 276.32 L4.5 274.82 L6 274.82 L6 271.07
									 Z" class="st5"/>
					</g>
				</g>
				<g id="shape524-158" v:mID="524" v:groupContext="shape" transform="translate(54.0007,-4.5015)">
					<title>Sheet.524</title>
					<rect x="0" y="271.067" width="2.25" height="5.25" class="st5"/>
				</g>
				<g id="shape525-160" v:mID="525" v:groupContext="shape" transform="translate(5.25075,-7.5015)">
					<title>Sheet.525</title>
					<rect x="0" y="274.067" width="2.25" height="2.25" class="st12"/>
				</g>
				<g id="shape526-162" v:mID="526" v:groupContext="shape" transform="translate(5.25075,-4.5015)">
					<title>Sheet.526</title>
					<rect x="0" y="274.067" width="2.25" height="2.25" class="st13"/>
				</g>
				<g id="shape527-164" v:mID="527" v:groupContext="shape" transform="translate(9.00075,-6.0015)">
					<title>Sheet.527</title>
					<rect x="0" y="274.067" width="6" height="2.25" class="st13"/>
				</g>
			</g>
		</g>
		<g id="group22-166" transform="translate(100.904,-221.66)" v:mID="22" v:groupContext="group" v:layerMember="0">
			<title>Cloud</title>
			<g id="group23-167" v:mID="23" v:groupContext="group" v:layerMember="0">
				<title>Sheet.23</title>
				<g id="shape24-168" v:mID="24" v:groupContext="shape" v:layerMember="0">
					<title>Sheet.24</title>
					<path d="M14.17 276.32 C6.36 276.32 0 269.67 0 261.47 C-0 253.47 5.98 247.01 13.4 246.63 C15.71 243.93 18.8 242.39
								 22.27 242.1 C23.91 234.67 30.27 229.18 37.69 229.18 C42.61 229.18 47.14 231.59 50.13 235.64 C51.48
								 235.25 52.82 235.06 54.17 235.06 C62.66 235.06 69.6 242.39 69.6 251.25 C73.07 253.86 75.09 258 75.09
								 262.44 C75.09 268.8 71.04 274.29 65.16 275.83 L65.07 275.83 L63.14 276.22 L14.17 276.22 L14.17 276.32
								 Z" class="st1"/>
				</g>
				<g id="shape25-170" v:mID="25" v:groupContext="shape" v:layerMember="0" transform="translate(2.89187,-2.89187)">
					<title>Sheet.25</title>
					<path d="M63.81 255.69 C63.91 255.21 63.91 254.72 63.91 254.24 C63.91 246.82 58.32 240.84 51.38 240.84 C49.55
								 240.84 47.81 241.23 46.17 242.1 C43.86 237.76 39.62 234.96 34.9 234.96 C27.95 234.96 22.36 240.75
								 21.88 247.98 C21.3 247.88 20.82 247.78 20.24 247.78 C16.97 247.78 13.88 249.52 11.95 252.31 C11.66
								 252.31 11.47 252.31 11.18 252.31 C5.01 252.41 0 257.81 0 264.36 C0 270.92 5.01 276.32 11.28 276.32
								 L60.05 276.32 L61.6 276.03 C66.22 274.77 69.4 270.44 69.4 265.42 C69.4 261.28 67.19 257.52 63.81
								 255.69 ZM60.92 273.23 L59.77 273.42 L11.28 273.42 C6.65 273.42 2.89 269.38 2.89 264.36 C2.89 259.35
								 6.55 255.3 11.18 255.3 C11.37 255.3 11.57 255.3 11.76 255.3 L13.4 255.4 L14.36 253.95 C15.71 251.83
								 17.93 250.68 20.24 250.68 C20.63 250.68 21.01 250.68 21.4 250.77 L24.58 251.35 L24.77 248.07 C25.06
								 242.29 29.5 237.76 34.9 237.76 C38.46 237.76 41.84 239.88 43.57 243.35 L44.92 245.86 L47.43 244.6
								 C48.68 244.02 50.03 243.64 51.38 243.64 C56.68 243.64 61.02 248.36 61.02 254.15 C61.02 254.53 61.02
								 254.92 60.92 255.3 L60.73 257.23 L62.46 258.19 C64.97 259.54 66.51 262.34 66.51 265.33 C66.51 269.09
								 64.2 272.27 60.92 273.23 Z" class="st1"/>
				</g>
			</g>
		</g>
		<g id="group1-172" transform="translate(184.198,-105.895)" v:mID="1" v:groupContext="group">
			<title>Load Balancer.1</title>
			<g id="group2-173" v:mID="2" v:groupContext="group">
				<title>Sheet.2</title>
				<g id="group3-174" v:mID="3" v:groupContext="group">
					<title>Sheet.3</title>
					<g id="shape4-175" v:mID="4" v:groupContext="shape">
						<title>Sheet.4</title>
						<path d="M60.42 262.61 L51.62 253.81 L10.63 253.81 L1.83 262.61 C0.74 263.26 -0 264.45 0 265.82 L0 272.57
									 C0 274.63 1.68 276.32 3.75 276.32 L58.5 276.32 C60.57 276.32 62.25 274.63 62.25 272.57 L62.25
									 265.82 C62.25 264.45 61.51 263.26 60.42 262.61 Z" class="st1"/>
					</g>
					<g id="shape5-177" v:mID="5" v:groupContext="shape" transform="translate(1.50075,-1.5015)">
						<title>Sheet.5</title>
						<path d="M59.25 274.07 C59.25 275.31 58.24 276.32 57 276.32 L2.25 276.32 C1.01 276.32 0 275.31 0 274.07 L0
									 267.32 C-0 266.07 1.01 265.07 2.25 265.07 L57 265.07 C58.24 265.07 59.25 266.07 59.25 267.32
									 L59.25 274.07 Z" class="st11"/>
					</g>
					<g id="shape6-179" v:mID="6" v:groupContext="shape" transform="translate(3.00225,-3.003)">
						<title>Sheet.6</title>
						<path d="M0.75 276.32 C0.34 276.32 -0 275.98 0 275.57 L0 268.82 C0 268.4 0.34 268.07 0.75 268.07 L55.5 268.07
									 C55.91 268.07 56.25 268.4 56.25 268.82 L56.25 275.57 C56.25 275.98 55.91 276.32 55.5 276.32
									 L0.75 276.32 Z" class="st1"/>
					</g>
					<g id="shape7-181" v:mID="7" v:groupContext="shape" transform="translate(4.50075,-14.2515)">
						<title>Sheet.7</title>
						<path d="M53.25 276.32 L46.5 269.57 L6.75 269.57 L0 276.32 L53.25 276.32 Z" class="st11"/>
					</g>
				</g>
				<g id="group8-183" transform="translate(19.5007,-4.5015)" v:mID="8" v:groupContext="group">
					<title>Sheet.8</title>
					<g id="shape9-184" v:mID="9" v:groupContext="shape">
						<title>Sheet.9</title>
						<path d="M6 271.07 L0 271.07 L0 274.82 L1.5 274.82 L1.5 276.32 L4.5 276.32 L4.5 274.82 L6 274.82 L6 271.07
									 Z" class="st5"/>
					</g>
					<g id="shape10-186" v:mID="10" v:groupContext="shape" transform="translate(8.25,0)">
						<title>Sheet.10</title>
						<path d="M6 271.07 L0 271.07 L0 274.82 L1.5 274.82 L1.5 276.32 L4.5 276.32 L4.5 274.82 L6 274.82 L6 271.07
									 Z" class="st5"/>
					</g>
					<g id="shape11-188" v:mID="11" v:groupContext="shape" transform="translate(16.5,0)">
						<title>Sheet.11</title>
						<path d="M6 271.07 L0 271.07 L0 274.82 L1.5 274.82 L1.5 276.32 L4.5 276.32 L4.5 274.82 L6 274.82 L6 271.07
									 Z" class="st5"/>
					</g>
					<g id="shape12-190" v:mID="12" v:groupContext="shape" transform="translate(24.75,0)">
						<title>Sheet.12</title>
						<path d="M6 271.07 L0 271.07 L0 274.82 L1.5 274.82 L1.5 276.32 L4.5 276.32 L4.5 274.82 L6 274.82 L6 271.07
									 Z" class="st5"/>
					</g>
				</g>
				<g id="shape13-192" v:mID="13" v:groupContext="shape" transform="translate(54.0007,-4.5015)">
					<title>Sheet.13</title>
					<rect x="0" y="271.067" width="2.25" height="5.25" class="st5"/>
				</g>
				<g id="shape14-194" v:mID="14" v:groupContext="shape" transform="translate(5.25075,-7.5015)">
					<title>Sheet.14</title>
					<rect x="0" y="274.067" width="2.25" height="2.25" class="st12"/>
				</g>
				<g id="shape15-196" v:mID="15" v:groupContext="shape" transform="translate(5.25075,-4.5015)">
					<title>Sheet.15</title>
					<rect x="0" y="274.067" width="2.25" height="2.25" class="st13"/>
				</g>
				<g id="shape16-198" v:mID="16" v:groupContext="shape" transform="translate(9.00075,-6.0015)">
					<title>Sheet.16</title>
					<rect x="0" y="274.067" width="6" height="2.25" class="st13"/>
				</g>
			</g>
		</g>
	</g>
</svg>
