<?xml version="1.0" encoding="UTF-8" standalone="no"?>
<!DOCTYPE svg PUBLIC "-//W3C//DTD SVG 1.0//EN" "http://www.w3.org/TR/2001/REC-SVG-20010904/DTD/svg10.dtd">
<!-- Generated by Microsoft Visio 11.0, SVG Export, v1.0 SD-WAN Demo Revised.svg Page-1 -->
<svg xmlns="http://www.w3.org/2000/svg" xmlns:xlink="http://www.w3.org/1999/xlink" xmlns:ev="http://www.w3.org/2001/xml-events"
		xmlns:v="http://schemas.microsoft.com/visio/2003/SVGExtensions/" width="8.5in" height="11in" viewBox="0 0 612 792"
		xml:space="preserve" color-interpolation-filters="sRGB" class="st14">
	<v:documentProperties v:langID="1033" v:viewMarkup="false">
		<v:userDefs>
			<v:ud v:nameU="msvNoAutoConnect" v:val="VT0(0):26"/>
		</v:userDefs>
	</v:documentProperties>

	<style type="text/css">
	<![CDATA[
		.st1 {fill:#ffffff;stroke:none;stroke-linecap:butt;stroke-width:0.75}
		.st2 {fill:#808080;stroke:none;stroke-linecap:butt;stroke-width:0.75}
		.st3 {fill:#76a797;stroke:none;stroke-linecap:butt;stroke-width:0.75}
		.st4 {fill:#edc87e;stroke:none;stroke-linecap:butt;stroke-width:0.75}
		.st5 {fill:#000000;stroke:none;stroke-linecap:butt;stroke-width:0.75}
		.st6 {fill:#4d82b8;stroke:none;stroke-linecap:butt;stroke-width:0.75}
		.st7 {stroke:#548bd4;stroke-linecap:round;stroke-linejoin:round;stroke-width:1}
		.st8 {stroke:#000000;stroke-linecap:round;stroke-linejoin:round;stroke-width:0.75}
		.st9 {stroke:#789440;stroke-linecap:round;stroke-linejoin:round;stroke-width:1.5}
		.st10 {fill:#4d85b6;stroke:none;stroke-linecap:butt;stroke-width:0.75}
		.st11 {fill:#d55d44;stroke:none;stroke-linecap:butt;stroke-width:0.75}
		.st12 {fill:#77a697;stroke:none;stroke-linecap:butt;stroke-width:0.75}
		.st13 {fill:#923931;stroke:none;stroke-linecap:butt;stroke-width:0.75}
		.st14 {fill:none;fill-rule:evenodd;font-size:12px;overflow:visible;stroke-linecap:square;stroke-miterlimit:3}
	]]>
	</style>

	<g v:mID="0" v:index="1" v:groupContext="foregroundPage">
		<v:userDefs>
			<v:ud v:nameU="AllowShapeMoveCallback" v:prompt="" v:val="VT0(1):26"/>
		</v:userDefs>
		<title>Page-1</title>
		<v:pageProperties v:drawingScale="1" v:pageScale="1" v:drawingUnits="0" v:shadowOffsetX="9" v:shadowOffsetY="-9"/>
		<v:layer v:name="symbols" v:index="0"/>
		<v:layer v:name="Connector" v:index="1"/>
		<g id="group470-1" transform="translate(238.809,-706.585)" v:mID="470" v:groupContext="group">
			<title>Cloud, Public</title>
		</g>
		<g id="group475-2" transform="translate(147.6,-493.2)" v:mID="475" v:groupContext="group">
			<title>IP-PBX</title>
			<g id="group476-3" transform="translate(30.075,-18)" v:mID="476" v:groupContext="group">
				<title>Layer_2</title>
				<g id="shape477-4" v:mID="477" v:groupContext="shape">
					<title>Sheet.477</title>
					<path d="M3.75 792 C1.68 792 -0 790.32 0 788.25 L0 781.5 C-0 779.96 0.96 778.35 2.25 777.75 L10.5 769.5 L51.75
								 769.5 L60 777.75 C61.28 778.36 62.25 779.98 62.25 781.5 L62.25 788.25 C62.25 790.32 60.57 792 58.5
								 792 L3.75 792 Z" class="st1"/>
				</g>
				<g id="shape478-6" v:mID="478" v:groupContext="shape" transform="translate(1.5,-1.5)">
					<title>Sheet.478</title>
					<path d="M59.28 789.75 C59.28 790.99 58.27 792 57.03 792 L2.25 792 C1.01 792 -0 790.99 0 789.75 L0 783 C0 781.76
								 1.01 780.75 2.25 780.75 L57.03 780.75 C58.27 780.75 59.28 781.76 59.28 783 L59.28 789.75 Z"
							class="st2"/>
				</g>
				<g id="shape479-8" v:mID="479" v:groupContext="shape" transform="translate(3,-3)">
					<title>Sheet.479</title>
					<path d="M0.75 792 C0.34 792 -0 791.66 0 791.25 L0 784.5 C-0 784.09 0.34 783.75 0.75 783.75 L55.5 783.75 C55.91
								 783.75 56.25 784.09 56.25 784.5 L56.25 791.25 C56.25 791.66 55.91 792 55.5 792 L0.75 792 Z"
							class="st1"/>
				</g>
				<g id="shape480-10" v:mID="480" v:groupContext="shape" transform="translate(4.5,-14.25)">
					<title>Sheet.480</title>
					<path d="M53.12 792 L0 792 L6.75 785.25 L46.37 785.25 L53.12 792 Z" class="st2"/>
				</g>
				<g id="shape481-12" v:mID="481" v:groupContext="shape" transform="translate(5.25,-6)">
					<title>Sheet.481</title>
					<ellipse cx="1.125" cy="790.875" rx="1.125" ry="1.125" class="st3"/>
				</g>
				<g id="shape482-14" v:mID="482" v:groupContext="shape" transform="translate(9.75,-6)">
					<title>Sheet.482</title>
					<ellipse cx="1.125" cy="790.875" rx="1.125" ry="1.125" class="st4"/>
				</g>
				<g id="shape483-16" v:mID="483" v:groupContext="shape" transform="translate(14.25,-6)">
					<title>Sheet.483</title>
					<ellipse cx="1.125" cy="790.875" rx="1.125" ry="1.125" class="st3"/>
				</g>
				<g id="shape484-18" v:mID="484" v:groupContext="shape" transform="translate(53.25,-5.25)">
					<title>Sheet.484</title>
					<ellipse cx="1.875" cy="790.125" rx="1.875" ry="1.875" class="st3"/>
				</g>
				<g id="shape485-20" v:mID="485" v:groupContext="shape" transform="translate(19.5,-4.5)">
					<title>Sheet.485</title>
					<path d="M4.5 790.5 L4.5 792 L1.5 792 L1.5 790.5 L0 790.5 L0 786.75 L6 786.75 L6 790.5 L4.5 790.5 Z"
							class="st5"/>
				</g>
				<g id="shape486-22" v:mID="486" v:groupContext="shape" transform="translate(27.75,-4.5)">
					<title>Sheet.486</title>
					<path d="M4.5 790.5 L4.5 792 L1.5 792 L1.5 790.5 L0 790.5 L0 786.75 L6 786.75 L6 790.5 L4.5 790.5 Z"
							class="st5"/>
				</g>
			</g>
			<g id="group487-24" transform="translate(-6.825,-30.75)" v:mID="487" v:groupContext="group">
				<title>Sheet.487</title>
				<g id="shape488-25" v:mID="488" v:groupContext="shape">
					<title>Sheet.488</title>
					<path d="M4 792 C1.79 792 0 790.21 0 788 L0 765.25 C0 763.31 1.54 761.25 3 761.25 L30.25 761.25 C33.7 761.25
								 35.25 763.26 35.25 765.25 L35.25 788 C35.25 790.21 33.46 792 31.25 792 L4 792 Z" class="st1"/>
				</g>
				<g id="shape489-27" v:mID="489" v:groupContext="shape" transform="translate(1.5,-1.5)">
					<title>Sheet.489</title>
					<path d="M32.25 789.5 C32.25 790.88 31.13 792 29.75 792 L2.5 792 C1.12 792 -0 790.88 0 789.5 L0 766.75 C-0 765.37
								 1.12 764.25 1.5 764.25 L28.75 764.25 C31.13 764.25 32.25 765.37 32.25 766.75 L32.25 789.5 Z"
							class="st2"/>
				</g>
				<g id="shape490-29" v:mID="490" v:groupContext="shape" transform="translate(3,-3)">
					<title>Sheet.490</title>
					<path d="M4 792 C1.79 792 -0 790.22 0 788.02 L0 765.98 C0 763.78 1.79 762 4 762 L6.5 762 C8.71 762 10.5 763.78
								 10.5 765.98 L10.5 788.02 C10.5 790.22 8.71 792 6.5 792 L4 792 Z" class="st1"/>
				</g>
				<g id="shape491-31" v:mID="491" v:groupContext="shape" transform="translate(4.5,-4.5)">
					<title>Sheet.491</title>
					<path d="M7.5 789.52 C7.5 790.89 6.38 792 5 792 L2.5 792 C1.12 792 0 790.89 0 789.52 L0 767.48 C-0 766.11 1.12
								 765 2.5 765 L5 765 C6.38 765 7.5 766.11 7.5 767.48 L7.5 789.52 Z" class="st2"/>
				</g>
				<g id="shape492-33" v:mID="492" v:groupContext="shape" transform="translate(15.75,-19.5)">
					<title>Sheet.492</title>
					<rect x="0" y="783.75" width="15" height="8.25" class="st1"/>
				</g>
				<g id="shape493-35" v:mID="493" v:groupContext="shape" transform="translate(17.25,-21)">
					<title>Sheet.493</title>
					<rect x="0" y="786.75" width="12" height="5.25" class="st6"/>
				</g>
				<g id="group494-37" transform="translate(17.25,-14.25)" v:mID="494" v:groupContext="group">
					<title>Sheet.494</title>
					<g id="shape495-38" v:mID="495" v:groupContext="shape">
						<title>Sheet.495</title>
						<rect x="0" y="789" width="3" height="3" class="st1"/>
					</g>
					<g id="shape496-40" v:mID="496" v:groupContext="shape" transform="translate(9,0)">
						<title>Sheet.496</title>
						<rect x="0" y="789" width="3" height="3" class="st1"/>
					</g>
					<g id="shape497-42" v:mID="497" v:groupContext="shape" transform="translate(4.5,0)">
						<title>Sheet.497</title>
						<rect x="0" y="789" width="3" height="3" class="st1"/>
					</g>
				</g>
				<g id="group498-44" transform="translate(17.25,-9.75)" v:mID="498" v:groupContext="group">
					<title>Sheet.498</title>
					<g id="shape499-45" v:mID="499" v:groupContext="shape">
						<title>Sheet.499</title>
						<rect x="0" y="789" width="3" height="3" class="st1"/>
					</g>
					<g id="shape500-47" v:mID="500" v:groupContext="shape" transform="translate(9,0)">
						<title>Sheet.500</title>
						<rect x="0" y="789" width="3" height="3" class="st1"/>
					</g>
					<g id="shape501-49" v:mID="501" v:groupContext="shape" transform="translate(4.5,0)">
						<title>Sheet.501</title>
						<rect x="0" y="789" width="3" height="3" class="st1"/>
					</g>
				</g>
				<g id="group502-51" transform="translate(17.25,-5.25)" v:mID="502" v:groupContext="group">
					<title>Sheet.502</title>
					<g id="shape503-52" v:mID="503" v:groupContext="shape">
						<title>Sheet.503</title>
						<rect x="0" y="789" width="3" height="3" class="st1"/>
					</g>
					<g id="shape504-54" v:mID="504" v:groupContext="shape" transform="translate(9,0)">
						<title>Sheet.504</title>
						<rect x="0" y="789" width="3" height="3" class="st1"/>
					</g>
					<g id="shape505-56" v:mID="505" v:groupContext="shape" transform="translate(4.5,0)">
						<title>Sheet.505</title>
						<rect x="0" y="789" width="3" height="3" class="st1"/>
					</g>
				</g>
			</g>
			<g id="group506-58" transform="translate(75.6,0)" v:mID="506" v:groupContext="group">
				<title>Layer_3</title>
				<g id="shape507-59" v:mID="507" v:groupContext="shape">
					<title>white_sq</title>
					<rect x="0" y="764.25" width="27.75" height="27.75" class="st1"/>
				</g>
				<g id="shape508-61" v:mID="508" v:groupContext="shape" transform="translate(15,-1.5)">
					<title>Sheet.508</title>
					<path d="M2.25 780.75 L8.26 786.75 L8.25 780.75 L11.25 783.75 L11.25 792 L3 792 L0 789 L6 789 L0 783 L2.25 780.75
								 Z" class="st3"/>
				</g>
				<g id="shape509-63" v:mID="509" v:groupContext="shape" transform="translate(1.5,-1.5)">
					<title>Sheet.509</title>
					<path d="M11.25 783 L5.25 789 L11.25 789 L8.25 792 L0 792 L0 783.75 L3 780.75 L3 786.75 L9 780.75 L11.25 783 Z"
							class="st3"/>
				</g>
				<g id="shape510-65" v:mID="510" v:groupContext="shape" transform="translate(15,-15)">
					<title>Sheet.510</title>
					<path d="M0 789.75 L6 783.75 L0 783.75 L3 780.75 L11.25 780.75 L11.25 789 L8.25 792 L8.26 786 L2.25 792 L0 789.75
								 Z" class="st3"/>
				</g>
				<g id="shape511-67" v:mID="511" v:groupContext="shape" transform="translate(1.5,-15)">
					<title>Sheet.511</title>
					<path d="M9 792 L3 786 L3 792 L0 789 L0 780.75 L8.25 780.75 L11.25 783.75 L5.25 783.75 L11.25 789.75 L9 792 Z"
							class="st3"/>
				</g>
			</g>
		</g>
		<g id="group41-69" transform="translate(323.4,-511.498)" v:mID="41" v:groupContext="group">
			<title>IP-PBX.487</title>
			<g id="shape42-70" v:mID="42" v:groupContext="shape">
				<title>Sheet.42</title>
				<path d="M4 792 C1.79 792 0 790.21 0 788 L0 765.25 C0 763.31 1.54 761.25 3 761.25 L30.25 761.25 C33.7 761.25 35.25
							 763.26 35.25 765.25 L35.25 788 C35.25 790.21 33.46 792 31.25 792 L4 792 Z" class="st1"/>
			</g>
			<g id="shape43-72" v:mID="43" v:groupContext="shape" transform="translate(1.5,-1.5)">
				<title>Sheet.43</title>
				<path d="M32.25 789.5 C32.25 790.88 31.13 792 29.75 792 L2.5 792 C1.12 792 -0 790.88 0 789.5 L0 766.75 C-0 765.37
							 1.12 764.25 1.5 764.25 L28.75 764.25 C31.13 764.25 32.25 765.37 32.25 766.75 L32.25 789.5 Z"
						class="st2"/>
			</g>
			<g id="shape44-74" v:mID="44" v:groupContext="shape" transform="translate(3,-3)">
				<title>Sheet.44</title>
				<path d="M4 792 C1.79 792 -0 790.22 0 788.02 L0 765.98 C0 763.78 1.79 762 4 762 L6.5 762 C8.71 762 10.5 763.78 10.5
							 765.98 L10.5 788.02 C10.5 790.22 8.71 792 6.5 792 L4 792 Z" class="st1"/>
			</g>
			<g id="shape45-76" v:mID="45" v:groupContext="shape" transform="translate(4.5,-4.5)">
				<title>Sheet.45</title>
				<path d="M7.5 789.52 C7.5 790.89 6.38 792 5 792 L2.5 792 C1.12 792 0 790.89 0 789.52 L0 767.48 C-0 766.11 1.12 765
							 2.5 765 L5 765 C6.38 765 7.5 766.11 7.5 767.48 L7.5 789.52 Z" class="st2"/>
			</g>
			<g id="shape46-78" v:mID="46" v:groupContext="shape" transform="translate(15.75,-19.5)">
				<title>Sheet.46</title>
				<rect x="0" y="783.75" width="15" height="8.25" class="st1"/>
			</g>
			<g id="shape47-80" v:mID="47" v:groupContext="shape" transform="translate(17.25,-21)">
				<title>Sheet.47</title>
				<rect x="0" y="786.75" width="12" height="5.25" class="st6"/>
			</g>
			<g id="group48-82" transform="translate(17.25,-14.25)" v:mID="48" v:groupContext="group">
				<title>Sheet.48</title>
				<g id="shape49-83" v:mID="49" v:groupContext="shape">
					<title>Sheet.49</title>
					<rect x="0" y="789" width="3" height="3" class="st1"/>
				</g>
				<g id="shape50-85" v:mID="50" v:groupContext="shape" transform="translate(9,0)">
					<title>Sheet.50</title>
					<rect x="0" y="789" width="3" height="3" class="st1"/>
				</g>
				<g id="shape51-87" v:mID="51" v:groupContext="shape" transform="translate(4.5,0)">
					<title>Sheet.51</title>
					<rect x="0" y="789" width="3" height="3" class="st1"/>
				</g>
			</g>
			<g id="group52-89" transform="translate(17.25,-9.75)" v:mID="52" v:groupContext="group">
				<title>Sheet.52</title>
				<g id="shape53-90" v:mID="53" v:groupContext="shape">
					<title>Sheet.53</title>
					<rect x="0" y="789" width="3" height="3" class="st1"/>
				</g>
				<g id="shape54-92" v:mID="54" v:groupContext="shape" transform="translate(9,0)">
					<title>Sheet.54</title>
					<rect x="0" y="789" width="3" height="3" class="st1"/>
				</g>
				<g id="shape55-94" v:mID="55" v:groupContext="shape" transform="translate(4.5,0)">
					<title>Sheet.55</title>
					<rect x="0" y="789" width="3" height="3" class="st1"/>
				</g>
			</g>
			<g id="group56-96" transform="translate(17.25,-5.25)" v:mID="56" v:groupContext="group">
				<title>Sheet.56</title>
				<g id="shape57-97" v:mID="57" v:groupContext="shape">
					<title>Sheet.57</title>
					<rect x="0" y="789" width="3" height="3" class="st1"/>
				</g>
				<g id="shape58-99" v:mID="58" v:groupContext="shape" transform="translate(9,0)">
					<title>Sheet.58</title>
					<rect x="0" y="789" width="3" height="3" class="st1"/>
				</g>
				<g id="shape59-101" v:mID="59" v:groupContext="shape" transform="translate(4.5,0)">
					<title>Sheet.59</title>
					<rect x="0" y="789" width="3" height="3" class="st1"/>
				</g>
			</g>
		</g>
		<g id="shape110-103" v:mID="110" v:groupContext="shape" transform="translate(-601.194,30.9036) rotate(-74.8942)">
			<title>Sheet.110</title>
			<path d="M0 792 L45.99 792" class="st7"/>
		</g>
		<g id="shape111-106" v:mID="111" v:groupContext="shape" transform="translate(-596.941,340.323) rotate(-95.9445)">
			<title>Sheet.111</title>
			<path d="M0 792 L69.52 792" class="st7"/>
		</g>
		<g id="shape112-109" v:mID="112" v:groupContext="shape" transform="translate(786.829,-311.629) rotate(45)">
			<title>Sheet.112</title>
			<path d="M0 792 L6.36 792" class="st8"/>
		</g>
		<g id="shape113-112" v:mID="113" v:groupContext="shape" transform="translate(-440.261,131.757) rotate(-81.432)">
			<title>Sheet.113</title>
			<path d="M0 792 L58.4 792" class="st7"/>
		</g>
		<g id="shape114-115" v:mID="114" v:groupContext="shape" transform="translate(-315.236,606.859) rotate(-116.541)">
			<title>Sheet.114</title>
			<path d="M0 792 L68.14 792" class="st7"/>
		</g>
		<g id="shape109-118" v:mID="109" v:groupContext="shape" transform="translate(856.048,607.186) rotate(131.59)">
			<title>Sheet.109</title>
			<path d="M-0 792 A90.8283 42.5345 7.49 0 1 124.74 792" class="st9"/>
		</g>
		<g id="shape108-121" v:mID="108" v:groupContext="shape" transform="translate(896.972,577.007) rotate(128.611)">
			<title>Sheet.108</title>
			<path d="M0 792 A93.5393 61.066 14.67 0 1 126.92 792" class="st9"/>
		</g>
		<g id="shape116-124" v:mID="116" v:groupContext="shape" transform="translate(-402.81,460.061) rotate(-110.999)">
			<title>Sheet.116</title>
			<path d="M0 792 A75.2946 42.3419 10.37 0 1 102.94 792" class="st9"/>
		</g>
		<g id="shape117-127" v:mID="117" v:groupContext="shape" transform="translate(-368.932,487.144) rotate(-113.514)">
			<title>Sheet.117</title>
			<path d="M-0 792 A72.6927 42.2883 11.13 0 1 99.25 792" class="st9"/>
		</g>
		<g id="group512-130" transform="translate(148.5,-595.648)" v:mID="512" v:groupContext="group">
			<title>Load Balancer</title>
			<g id="group513-131" v:mID="513" v:groupContext="group">
				<title>Sheet.513</title>
				<g id="group514-132" v:mID="514" v:groupContext="group">
					<title>Sheet.514</title>
					<g id="shape515-133" v:mID="515" v:groupContext="shape">
						<title>Sheet.515</title>
						<path d="M60.42 778.29 L51.62 769.5 L10.63 769.5 L1.83 778.29 C0.74 778.95 -0 780.13 0 781.5 L0 788.25 C0
									 790.32 1.68 792 3.75 792 L58.5 792 C60.57 792 62.25 790.32 62.25 788.25 L62.25 781.5 C62.25
									 780.13 61.51 778.95 60.42 778.29 Z" class="st1"/>
					</g>
					<g id="shape516-135" v:mID="516" v:groupContext="shape" transform="translate(1.50075,-1.5015)">
						<title>Sheet.516</title>
						<path d="M59.25 789.75 C59.25 790.99 58.24 792 57 792 L2.25 792 C1.01 792 0 790.99 0 789.75 L0 783 C-0 781.76
									 1.01 780.75 2.25 780.75 L57 780.75 C58.24 780.75 59.25 781.76 59.25 783 L59.25 789.75 Z"
								class="st10"/>
					</g>
					<g id="shape517-137" v:mID="517" v:groupContext="shape" transform="translate(3.00225,-3.003)">
						<title>Sheet.517</title>
						<path d="M0.75 792 C0.34 792 -0 791.66 0 791.25 L0 784.5 C0 784.09 0.34 783.75 0.75 783.75 L55.5 783.75 C55.91
									 783.75 56.25 784.09 56.25 784.5 L56.25 791.25 C56.25 791.66 55.91 792 55.5 792 L0.75 792 Z"
								class="st1"/>
					</g>
					<g id="shape518-139" v:mID="518" v:groupContext="shape" transform="translate(4.50075,-14.2515)">
						<title>Sheet.518</title>
						<path d="M53.25 792 L46.5 785.25 L6.75 785.25 L0 792 L53.25 792 Z" class="st10"/>
					</g>
				</g>
				<g id="group519-141" transform="translate(19.5007,-4.5015)" v:mID="519" v:groupContext="group">
					<title>Sheet.519</title>
					<g id="shape520-142" v:mID="520" v:groupContext="shape">
						<title>Sheet.520</title>
						<path d="M6 786.75 L0 786.75 L0 790.5 L1.5 790.5 L1.5 792 L4.5 792 L4.5 790.5 L6 790.5 L6 786.75 Z"
								class="st5"/>
					</g>
					<g id="shape521-144" v:mID="521" v:groupContext="shape" transform="translate(8.25,0)">
						<title>Sheet.521</title>
						<path d="M6 786.75 L0 786.75 L0 790.5 L1.5 790.5 L1.5 792 L4.5 792 L4.5 790.5 L6 790.5 L6 786.75 Z"
								class="st5"/>
					</g>
					<g id="shape522-146" v:mID="522" v:groupContext="shape" transform="translate(16.5,0)">
						<title>Sheet.522</title>
						<path d="M6 786.75 L0 786.75 L0 790.5 L1.5 790.5 L1.5 792 L4.5 792 L4.5 790.5 L6 790.5 L6 786.75 Z"
								class="st5"/>
					</g>
					<g id="shape523-148" v:mID="523" v:groupContext="shape" transform="translate(24.75,0)">
						<title>Sheet.523</title>
						<path d="M6 786.75 L0 786.75 L0 790.5 L1.5 790.5 L1.5 792 L4.5 792 L4.5 790.5 L6 790.5 L6 786.75 Z"
								class="st5"/>
					</g>
				</g>
				<g id="shape524-150" v:mID="524" v:groupContext="shape" transform="translate(54.0007,-4.5015)">
					<title>Sheet.524</title>
					<rect x="0" y="786.75" width="2.25" height="5.25" class="st5"/>
				</g>
				<g id="shape525-152" v:mID="525" v:groupContext="shape" transform="translate(5.25075,-7.5015)">
					<title>Sheet.525</title>
					<rect x="0" y="789.75" width="2.25" height="2.25" class="st11"/>
				</g>
				<g id="shape526-154" v:mID="526" v:groupContext="shape" transform="translate(5.25075,-4.5015)">
					<title>Sheet.526</title>
					<rect x="0" y="789.75" width="2.25" height="2.25" class="st12"/>
				</g>
				<g id="shape527-156" v:mID="527" v:groupContext="shape" transform="translate(9.00075,-6.0015)">
					<title>Sheet.527</title>
					<rect x="0" y="789.75" width="6" height="2.25" class="st12"/>
				</g>
			</g>
		</g>
		<g id="group22-158" transform="translate(223.2,-691.2)" v:mID="22" v:groupContext="group" v:layerMember="0">
			<title>Cloud</title>
			<g id="group23-159" v:mID="23" v:groupContext="group" v:layerMember="0">
				<title>Sheet.23</title>
				<g id="shape24-160" v:mID="24" v:groupContext="shape" v:layerMember="0">
					<title>Sheet.24</title>
					<path d="M23.5 792 C10.55 792 -0 780.97 0 767.38 C-0 754.12 9.91 743.41 22.22 742.77 C26.06 738.29 31.17 735.73
								 36.93 735.25 C39.64 722.94 50.19 713.83 62.5 713.83 C70.65 713.83 78.17 717.83 83.12 724.54 C85.36
								 723.9 87.6 723.58 89.84 723.58 C103.9 723.58 115.41 735.73 115.41 750.44 C121.17 754.75 124.52 761.63
								 124.52 768.98 C124.52 779.53 117.81 788.64 108.06 791.2 L107.9 791.2 L104.7 791.84 L23.5 791.84
								 L23.5 792 Z" class="st1"/>
				</g>
				<g id="shape25-162" v:mID="25" v:groupContext="shape" v:layerMember="0" transform="translate(4.7955,-4.7955)">
					<title>Sheet.25</title>
					<path d="M105.82 757.79 C105.98 756.99 105.98 756.19 105.98 755.39 C105.98 743.09 96.71 733.18 85.2 733.18 C82.16
								 733.18 79.29 733.81 76.57 735.25 C72.73 728.06 65.7 723.42 57.87 723.42 C46.36 723.42 37.09 733.02
								 36.29 745 C35.33 744.84 34.53 744.68 33.57 744.68 C28.13 744.68 23.02 747.56 19.82 752.2 C19.34
								 752.2 19.02 752.2 18.54 752.2 C8.31 752.36 -0 761.31 0 772.18 C-0 783.05 8.31 792 18.7 792 L99.59
								 792 L102.14 791.52 C109.82 789.44 115.09 782.25 115.09 773.94 C115.09 767.06 111.42 760.83 105.82
								 757.79 ZM101.03 786.88 L99.11 787.2 L18.7 787.2 C11.03 787.2 4.8 780.49 4.8 772.18 C4.8 763.87 10.87
								 757.15 18.54 757.15 C18.86 757.15 19.18 757.15 19.5 757.15 L22.22 757.31 L23.82 754.91 C26.06 751.4
								 29.73 749.48 33.57 749.48 C34.21 749.48 34.85 749.48 35.49 749.64 L40.76 750.6 L41.08 745.16 C41.56
								 735.57 48.91 728.06 57.87 728.06 C63.78 728.06 69.37 731.58 72.25 737.33 L74.49 741.49 L78.65 739.41
								 C80.72 738.45 82.96 737.81 85.2 737.81 C93.99 737.81 101.18 745.64 101.18 755.23 C101.18 755.87
								 101.18 756.51 101.03 757.15 L100.71 760.35 L103.58 761.95 C107.74 764.19 110.3 768.82 110.3 773.78
								 C110.3 780.01 106.46 785.29 101.03 786.88 Z" class="st1"/>
				</g>
			</g>
		</g>
		<g id="group1-164" transform="translate(331.048,-598.345)" v:mID="1" v:groupContext="group">
			<title>Load Balancer.1</title>
			<g id="group2-165" v:mID="2" v:groupContext="group">
				<title>Sheet.2</title>
				<g id="group3-166" v:mID="3" v:groupContext="group">
					<title>Sheet.3</title>
					<g id="shape4-167" v:mID="4" v:groupContext="shape">
						<title>Sheet.4</title>
						<path d="M60.42 778.29 L51.62 769.5 L10.63 769.5 L1.83 778.29 C0.74 778.95 -0 780.13 0 781.5 L0 788.25 C0
									 790.32 1.68 792 3.75 792 L58.5 792 C60.57 792 62.25 790.32 62.25 788.25 L62.25 781.5 C62.25
									 780.13 61.51 778.95 60.42 778.29 Z" class="st1"/>
					</g>
					<g id="shape5-169" v:mID="5" v:groupContext="shape" transform="translate(1.50075,-1.5015)">
						<title>Sheet.5</title>
						<path d="M59.25 789.75 C59.25 790.99 58.24 792 57 792 L2.25 792 C1.01 792 0 790.99 0 789.75 L0 783 C-0 781.76
									 1.01 780.75 2.25 780.75 L57 780.75 C58.24 780.75 59.25 781.76 59.25 783 L59.25 789.75 Z"
								class="st10"/>
					</g>
					<g id="shape6-171" v:mID="6" v:groupContext="shape" transform="translate(3.00225,-3.003)">
						<title>Sheet.6</title>
						<path d="M0.75 792 C0.34 792 -0 791.66 0 791.25 L0 784.5 C0 784.09 0.34 783.75 0.75 783.75 L55.5 783.75 C55.91
									 783.75 56.25 784.09 56.25 784.5 L56.25 791.25 C56.25 791.66 55.91 792 55.5 792 L0.75 792 Z"
								class="st1"/>
					</g>
					<g id="shape7-173" v:mID="7" v:groupContext="shape" transform="translate(4.50075,-14.2515)">
						<title>Sheet.7</title>
						<path d="M53.25 792 L46.5 785.25 L6.75 785.25 L0 792 L53.25 792 Z" class="st10"/>
					</g>
				</g>
				<g id="group8-175" transform="translate(19.5007,-4.5015)" v:mID="8" v:groupContext="group">
					<title>Sheet.8</title>
					<g id="shape9-176" v:mID="9" v:groupContext="shape">
						<title>Sheet.9</title>
						<path d="M6 786.75 L0 786.75 L0 790.5 L1.5 790.5 L1.5 792 L4.5 792 L4.5 790.5 L6 790.5 L6 786.75 Z"
								class="st5"/>
					</g>
					<g id="shape10-178" v:mID="10" v:groupContext="shape" transform="translate(8.25,0)">
						<title>Sheet.10</title>
						<path d="M6 786.75 L0 786.75 L0 790.5 L1.5 790.5 L1.5 792 L4.5 792 L4.5 790.5 L6 790.5 L6 786.75 Z"
								class="st5"/>
					</g>
					<g id="shape11-180" v:mID="11" v:groupContext="shape" transform="translate(16.5,0)">
						<title>Sheet.11</title>
						<path d="M6 786.75 L0 786.75 L0 790.5 L1.5 790.5 L1.5 792 L4.5 792 L4.5 790.5 L6 790.5 L6 786.75 Z"
								class="st5"/>
					</g>
					<g id="shape12-182" v:mID="12" v:groupContext="shape" transform="translate(24.75,0)">
						<title>Sheet.12</title>
						<path d="M6 786.75 L0 786.75 L0 790.5 L1.5 790.5 L1.5 792 L4.5 792 L4.5 790.5 L6 790.5 L6 786.75 Z"
								class="st5"/>
					</g>
				</g>
				<g id="shape13-184" v:mID="13" v:groupContext="shape" transform="translate(54.0007,-4.5015)">
					<title>Sheet.13</title>
					<rect x="0" y="786.75" width="2.25" height="5.25" class="st5"/>
				</g>
				<g id="shape14-186" v:mID="14" v:groupContext="shape" transform="translate(5.25075,-7.5015)">
					<title>Sheet.14</title>
					<rect x="0" y="789.75" width="2.25" height="2.25" class="st11"/>
				</g>
				<g id="shape15-188" v:mID="15" v:groupContext="shape" transform="translate(5.25075,-4.5015)">
					<title>Sheet.15</title>
					<rect x="0" y="789.75" width="2.25" height="2.25" class="st12"/>
				</g>
				<g id="shape16-190" v:mID="16" v:groupContext="shape" transform="translate(9.00075,-6.0015)">
					<title>Sheet.16</title>
					<rect x="0" y="789.75" width="6" height="2.25" class="st12"/>
				</g>
			</g>
		</g>
		<g id="group60-192" transform="translate(373.8,-508.498)" v:mID="60" v:groupContext="group" v:layerMember="0">
			<title>Device, Phone, Digital</title>
			<g id="group61-193" v:mID="61" v:groupContext="group" v:layerMember="0">
				<title>Sheet.61</title>
				<g id="shape62-194" v:mID="62" v:groupContext="shape" v:layerMember="0">
					<title>Sheet.62</title>
					<path d="M37 756.27 L13.91 756.27 C12.58 756.27 11.37 756.9 10.62 757.94 C10.1 757.37 9.41 756.9 8.54 756.61
								 C7.62 756.33 7.1 756.27 5.83 756.27 C4.56 756.27 4.04 756.33 3.12 756.61 C1.27 757.19 0.17 758.52
								 0.06 760.42 C0 761.06 0.06 761.87 0.12 763.37 C0.17 765.39 0.29 768.74 0.29 774.51 C0.29 779.13
								 0.17 782.19 0.12 784.15 C0.06 785.77 -0 786.86 0.06 787.73 C0.17 789.69 1.33 791.08 3.17 791.6 C4.1
								 791.88 4.91 792 5.77 792 C6.7 792 7.62 791.88 8.54 791.6 C9.41 791.37 10.16 790.9 10.68 790.27 C11.43
								 791.31 12.58 791.94 13.97 791.94 L37.06 791.94 C39.31 791.94 41.1 790.15 41.1 787.9 L41.1 760.31
								 C41.04 758.06 39.25 756.27 37 756.27 Z" class="st1"/>
				</g>
				<g id="shape63-196" v:mID="63" v:groupContext="shape" v:layerMember="0" transform="translate(1.67402,-1.67402)">
					<title>Sheet.63</title>
					<path d="M8.2 762.27 C8.08 761 7.45 760.31 6.35 759.96 C5.66 759.73 5.31 759.67 4.16 759.67 C3 759.67 2.66 759.73
								 1.96 759.96 C0.87 760.31 0.17 761 0.12 762.27 C0 763.66 0.35 766.49 0.35 776.24 C0.35 784.5 -0 787.5
								 0.12 789.4 C0.17 790.67 0.87 791.42 1.96 791.71 C2.66 791.88 3.35 792 4.1 792 C4.85 792 5.66 791.88
								 6.41 791.71 C7.5 791.42 8.2 790.67 8.25 789.4 C8.37 787.5 8.08 784.67 8.08 776.41 C8.02 766.66 8.31
								 763.66 8.2 762.27 Z" class="st13"/>
				</g>
				<g id="shape64-198" v:mID="64" v:groupContext="shape" v:layerMember="0" transform="translate(11.6027,-1.67402)">
					<title>Sheet.64</title>
					<path d="M25.4 759.67 L2.31 759.67 C1.04 759.67 -0 760.71 0 761.98 L0 789.69 C-0 790.96 1.04 792 2.31 792 L25.4
								 792 C26.67 792 27.71 790.96 27.71 789.69 L27.71 761.98 C27.71 760.71 26.67 759.67 25.4 759.67 ZM9.81
								 784.5 C9.81 784.84 9.58 785.07 9.24 785.07 L6.35 785.07 C6 785.07 5.77 784.84 5.77 784.5 L5.77 783.34
								 C5.77 782.99 6 782.76 6.35 782.76 L9.24 782.76 C9.58 782.76 9.81 782.99 9.81 783.34 L9.81 784.5
								 ZM9.81 780.46 C9.81 780.8 9.58 781.03 9.24 781.03 L6.35 781.03 C6 781.03 5.77 780.8 5.77 780.46
								 L5.77 779.3 C5.77 778.95 6 778.72 6.35 778.72 L9.24 778.72 C9.58 778.72 9.81 778.95 9.81 779.3 L9.81
								 780.46 ZM9.81 776.41 C9.81 776.76 9.58 776.99 9.24 776.99 L6.35 776.99 C6 776.99 5.77 776.76 5.77
								 776.41 L5.77 775.26 C5.77 774.91 6 774.68 6.35 774.68 L9.24 774.68 C9.58 774.68 9.81 774.91 9.81
								 775.26 L9.81 776.41 ZM15.59 784.5 C15.59 784.84 15.35 785.07 15.01 785.07 L12.12 785.07 C11.78 785.07
								 11.54 784.84 11.54 784.5 L11.54 783.34 C11.54 782.99 11.78 782.76 12.12 782.76 L15.01 782.76 C15.35
								 782.76 15.59 782.99 15.59 783.34 L15.59 784.5 ZM15.59 780.46 C15.59 780.8 15.35 781.03 15.01 781.03
								 L12.12 781.03 C11.78 781.03 11.54 780.8 11.54 780.46 L11.54 779.3 C11.54 778.95 11.78 778.72 12.12
								 778.72 L15.01 778.72 C15.35 778.72 15.59 778.95 15.59 779.3 L15.59 780.46 ZM15.59 776.41 C15.59
								 776.76 15.35 776.99 15.01 776.99 L12.12 776.99 C11.78 776.99 11.54 776.76 11.54 776.41 L11.54 775.26
								 C11.54 774.91 11.78 774.68 12.12 774.68 L15.01 774.68 C15.35 774.68 15.59 774.91 15.59 775.26 L15.59
								 776.41 ZM21.36 784.5 C21.36 784.84 21.13 785.07 20.78 785.07 L17.89 785.07 C17.55 785.07 17.32 784.84
								 17.32 784.5 L17.32 783.34 C17.32 782.99 17.55 782.76 17.89 782.76 L20.78 782.76 C21.13 782.76 21.36
								 782.99 21.36 783.34 L21.36 784.5 ZM21.36 780.46 C21.36 780.8 21.13 781.03 20.78 781.03 L17.89 781.03
								 C17.55 781.03 17.32 780.8 17.32 780.46 L17.32 779.3 C17.32 778.95 17.55 778.72 17.89 778.72 L20.78
								 778.72 C21.13 778.72 21.36 778.95 21.36 779.3 L21.36 780.46 ZM21.36 776.41 C21.36 776.76 21.13 776.99
								 20.78 776.99 L17.89 776.99 C17.55 776.99 17.32 776.76 17.32 776.41 L17.32 775.26 C17.32 774.91 17.55
								 774.68 17.89 774.68 L20.78 774.68 C21.13 774.68 21.36 774.91 21.36 775.26 L21.36 776.41 ZM23.09
								 770.06 C23.09 770.41 22.86 770.64 22.51 770.64 L5.2 770.64 C4.85 770.64 4.62 770.41 4.62 770.06
								 L4.62 763.71 C4.62 763.37 4.85 763.14 5.2 763.14 L22.51 763.14 C22.86 763.14 23.09 763.37 23.09
								 763.71 L23.09 770.06 Z" class="st13"/>
				</g>
			</g>
		</g>
	</g>
</svg>
