<?xml version="1.0" encoding="UTF-8" standalone="no"?>
<!DOCTYPE svg PUBLIC "-//W3C//DTD SVG 1.0//EN" "http://www.w3.org/TR/2001/REC-SVG-20010904/DTD/svg10.dtd">
<!-- Generated by Microsoft Visio 11.0, SVG Export, v1.0 SD-WAN DemoTC2.svg Page-1 -->
<svg xmlns="http://www.w3.org/2000/svg" xmlns:xlink="http://www.w3.org/1999/xlink" xmlns:ev="http://www.w3.org/2001/xml-events"
		xmlns:v="http://schemas.microsoft.com/visio/2003/SVGExtensions/" width="8.5in" height="11in" viewBox="0 0 612 792"
		xml:space="preserve" color-interpolation-filters="sRGB" class="st10">
	<v:documentProperties v:langID="1033" v:viewMarkup="false">
		<v:userDefs>
			<v:ud v:nameU="msvNoAutoConnect" v:val="VT0(0):26"/>
		</v:userDefs>
	</v:documentProperties>

	<style type="text/css">
	<![CDATA[
		.st1 {stroke:#548bd4;stroke-linecap:round;stroke-linejoin:round;stroke-width:1}
		.st2 {stroke:#789440;stroke-linecap:round;stroke-linejoin:round;stroke-width:1.5}
		.st3 {fill:#ffffff;stroke:none;stroke-linecap:butt;stroke-width:0.75}
		.st4 {fill:#4d85b6;stroke:none;stroke-linecap:butt;stroke-width:0.75}
		.st5 {fill:#000000;stroke:none;stroke-linecap:butt;stroke-width:0.75}
		.st6 {fill:#d55d44;stroke:none;stroke-linecap:butt;stroke-width:0.75}
		.st7 {fill:#77a697;stroke:none;stroke-linecap:butt;stroke-width:0.75}
		.st8 {fill:#923931;stroke:none;stroke-linecap:butt;stroke-width:0.75}
		.st9 {fill:#808080;stroke:none;stroke-linecap:butt;stroke-width:0.75}
		.st10 {fill:none;fill-rule:evenodd;font-size:12px;overflow:visible;stroke-linecap:square;stroke-miterlimit:3}
	]]>
	</style>

	<g v:mID="0" v:index="1" v:groupContext="foregroundPage">
		<v:userDefs>
			<v:ud v:nameU="AllowShapeMoveCallback" v:prompt="" v:val="VT0(1):26"/>
		</v:userDefs>
		<title>Page-1</title>
		<v:pageProperties v:drawingScale="1" v:pageScale="1" v:drawingUnits="0" v:shadowOffsetX="9" v:shadowOffsetY="-9"/>
		<v:layer v:name="symbols" v:index="0"/>
		<v:layer v:name="Connector" v:index="1"/>
		<g id="group470-1" transform="translate(238.809,-706.585)" v:mID="470" v:groupContext="group">
			<title>Cloud, Public</title>
		</g>
		<g id="shape114-2" v:mID="114" v:groupContext="shape" transform="translate(-315.236,606.859) rotate(-116.541)">
			<title>Sheet.114</title>
			<path d="M0 792 L68.14 792" class="st1"/>
		</g>
		<g id="shape116-5" v:mID="116" v:groupContext="shape" transform="translate(-402.81,460.061) rotate(-110.999)">
			<title>Sheet.116</title>
			<path d="M0 792 A75.2946 42.3419 10.37 0 1 102.94 792" class="st2"/>
		</g>
		<g id="group1-8" transform="translate(331.048,-598.345)" v:mID="1" v:groupContext="group">
			<title>Load Balancer.1</title>
			<g id="group2-9" v:mID="2" v:groupContext="group">
				<title>Sheet.2</title>
				<g id="group3-10" v:mID="3" v:groupContext="group">
					<title>Sheet.3</title>
					<g id="shape4-11" v:mID="4" v:groupContext="shape">
						<title>Sheet.4</title>
						<path d="M60.42 778.29 L51.62 769.5 L10.63 769.5 L1.83 778.29 C0.74 778.95 -0 780.13 0 781.5 L0 788.25 C0
									 790.32 1.68 792 3.75 792 L58.5 792 C60.57 792 62.25 790.32 62.25 788.25 L62.25 781.5 C62.25
									 780.13 61.51 778.95 60.42 778.29 Z" class="st3"/>
					</g>
					<g id="shape5-13" v:mID="5" v:groupContext="shape" transform="translate(1.50075,-1.5015)">
						<title>Sheet.5</title>
						<path d="M59.25 789.75 C59.25 790.99 58.24 792 57 792 L2.25 792 C1.01 792 0 790.99 0 789.75 L0 783 C-0 781.76
									 1.01 780.75 2.25 780.75 L57 780.75 C58.24 780.75 59.25 781.76 59.25 783 L59.25 789.75 Z"
								class="st4"/>
					</g>
					<g id="shape6-15" v:mID="6" v:groupContext="shape" transform="translate(3.00225,-3.003)">
						<title>Sheet.6</title>
						<path d="M0.75 792 C0.34 792 -0 791.66 0 791.25 L0 784.5 C0 784.09 0.34 783.75 0.75 783.75 L55.5 783.75 C55.91
									 783.75 56.25 784.09 56.25 784.5 L56.25 791.25 C56.25 791.66 55.91 792 55.5 792 L0.75 792 Z"
								class="st3"/>
					</g>
					<g id="shape7-17" v:mID="7" v:groupContext="shape" transform="translate(4.50075,-14.2515)">
						<title>Sheet.7</title>
						<path d="M53.25 792 L46.5 785.25 L6.75 785.25 L0 792 L53.25 792 Z" class="st4"/>
					</g>
				</g>
				<g id="group8-19" transform="translate(19.5007,-4.5015)" v:mID="8" v:groupContext="group">
					<title>Sheet.8</title>
					<g id="shape9-20" v:mID="9" v:groupContext="shape">
						<title>Sheet.9</title>
						<path d="M6 786.75 L0 786.75 L0 790.5 L1.5 790.5 L1.5 792 L4.5 792 L4.5 790.5 L6 790.5 L6 786.75 Z"
								class="st5"/>
					</g>
					<g id="shape10-22" v:mID="10" v:groupContext="shape" transform="translate(8.25,0)">
						<title>Sheet.10</title>
						<path d="M6 786.75 L0 786.75 L0 790.5 L1.5 790.5 L1.5 792 L4.5 792 L4.5 790.5 L6 790.5 L6 786.75 Z"
								class="st5"/>
					</g>
					<g id="shape11-24" v:mID="11" v:groupContext="shape" transform="translate(16.5,0)">
						<title>Sheet.11</title>
						<path d="M6 786.75 L0 786.75 L0 790.5 L1.5 790.5 L1.5 792 L4.5 792 L4.5 790.5 L6 790.5 L6 786.75 Z"
								class="st5"/>
					</g>
					<g id="shape12-26" v:mID="12" v:groupContext="shape" transform="translate(24.75,0)">
						<title>Sheet.12</title>
						<path d="M6 786.75 L0 786.75 L0 790.5 L1.5 790.5 L1.5 792 L4.5 792 L4.5 790.5 L6 790.5 L6 786.75 Z"
								class="st5"/>
					</g>
				</g>
				<g id="shape13-28" v:mID="13" v:groupContext="shape" transform="translate(54.0007,-4.5015)">
					<title>Sheet.13</title>
					<rect x="0" y="786.75" width="2.25" height="5.25" class="st5"/>
				</g>
				<g id="shape14-30" v:mID="14" v:groupContext="shape" transform="translate(5.25075,-7.5015)">
					<title>Sheet.14</title>
					<rect x="0" y="789.75" width="2.25" height="2.25" class="st6"/>
				</g>
				<g id="shape15-32" v:mID="15" v:groupContext="shape" transform="translate(5.25075,-4.5015)">
					<title>Sheet.15</title>
					<rect x="0" y="789.75" width="2.25" height="2.25" class="st7"/>
				</g>
				<g id="shape16-34" v:mID="16" v:groupContext="shape" transform="translate(9.00075,-6.0015)">
					<title>Sheet.16</title>
					<rect x="0" y="789.75" width="6" height="2.25" class="st7"/>
				</g>
			</g>
		</g>
		<g id="group17-36" transform="translate(116.25,-712.8)" v:mID="17" v:groupContext="group" v:layerMember="0">
			<title>Device, Phone, Digital.17</title>
			<g id="group18-37" v:mID="18" v:groupContext="group" v:layerMember="0">
				<title>Sheet.18</title>
				<g id="shape19-38" v:mID="19" v:groupContext="shape" v:layerMember="0">
					<title>Sheet.19</title>
					<path d="M37 756.27 L13.91 756.27 C12.58 756.27 11.37 756.9 10.62 757.94 C10.1 757.37 9.41 756.9 8.54 756.61
								 C7.62 756.33 7.1 756.27 5.83 756.27 C4.56 756.27 4.04 756.33 3.12 756.61 C1.27 757.19 0.17 758.52
								 0.06 760.42 C0 761.06 0.06 761.87 0.12 763.37 C0.17 765.39 0.29 768.74 0.29 774.51 C0.29 779.13
								 0.17 782.19 0.12 784.15 C0.06 785.77 -0 786.86 0.06 787.73 C0.17 789.69 1.33 791.08 3.17 791.6 C4.1
								 791.88 4.91 792 5.77 792 C6.7 792 7.62 791.88 8.54 791.6 C9.41 791.37 10.16 790.9 10.68 790.27 C11.43
								 791.31 12.58 791.94 13.97 791.94 L37.06 791.94 C39.31 791.94 41.1 790.15 41.1 787.9 L41.1 760.31
								 C41.04 758.06 39.25 756.27 37 756.27 Z" class="st3"/>
				</g>
				<g id="shape20-40" v:mID="20" v:groupContext="shape" v:layerMember="0" transform="translate(1.67402,-1.67402)">
					<title>Sheet.20</title>
					<path d="M8.2 762.27 C8.08 761 7.45 760.31 6.35 759.96 C5.66 759.73 5.31 759.67 4.16 759.67 C3 759.67 2.66 759.73
								 1.96 759.96 C0.87 760.31 0.17 761 0.12 762.27 C0 763.66 0.35 766.49 0.35 776.24 C0.35 784.5 -0 787.5
								 0.12 789.4 C0.17 790.67 0.87 791.42 1.96 791.71 C2.66 791.88 3.35 792 4.1 792 C4.85 792 5.66 791.88
								 6.41 791.71 C7.5 791.42 8.2 790.67 8.25 789.4 C8.37 787.5 8.08 784.67 8.08 776.41 C8.02 766.66 8.31
								 763.66 8.2 762.27 Z" class="st8"/>
				</g>
				<g id="shape21-42" v:mID="21" v:groupContext="shape" v:layerMember="0" transform="translate(11.6027,-1.67402)">
					<title>Sheet.21</title>
					<path d="M25.4 759.67 L2.31 759.67 C1.04 759.67 -0 760.71 0 761.98 L0 789.69 C-0 790.96 1.04 792 2.31 792 L25.4
								 792 C26.67 792 27.71 790.96 27.71 789.69 L27.71 761.98 C27.71 760.71 26.67 759.67 25.4 759.67 ZM9.81
								 784.5 C9.81 784.84 9.58 785.07 9.24 785.07 L6.35 785.07 C6 785.07 5.77 784.84 5.77 784.5 L5.77 783.34
								 C5.77 782.99 6 782.76 6.35 782.76 L9.24 782.76 C9.58 782.76 9.81 782.99 9.81 783.34 L9.81 784.5
								 ZM9.81 780.46 C9.81 780.8 9.58 781.03 9.24 781.03 L6.35 781.03 C6 781.03 5.77 780.8 5.77 780.46
								 L5.77 779.3 C5.77 778.95 6 778.72 6.35 778.72 L9.24 778.72 C9.58 778.72 9.81 778.95 9.81 779.3 L9.81
								 780.46 ZM9.81 776.41 C9.81 776.76 9.58 776.99 9.24 776.99 L6.35 776.99 C6 776.99 5.77 776.76 5.77
								 776.41 L5.77 775.26 C5.77 774.91 6 774.68 6.35 774.68 L9.24 774.68 C9.58 774.68 9.81 774.91 9.81
								 775.26 L9.81 776.41 ZM15.59 784.5 C15.59 784.84 15.35 785.07 15.01 785.07 L12.12 785.07 C11.78 785.07
								 11.54 784.84 11.54 784.5 L11.54 783.34 C11.54 782.99 11.78 782.76 12.12 782.76 L15.01 782.76 C15.35
								 782.76 15.59 782.99 15.59 783.34 L15.59 784.5 ZM15.59 780.46 C15.59 780.8 15.35 781.03 15.01 781.03
								 L12.12 781.03 C11.78 781.03 11.54 780.8 11.54 780.46 L11.54 779.3 C11.54 778.95 11.78 778.72 12.12
								 778.72 L15.01 778.72 C15.35 778.72 15.59 778.95 15.59 779.3 L15.59 780.46 ZM15.59 776.41 C15.59
								 776.76 15.35 776.99 15.01 776.99 L12.12 776.99 C11.78 776.99 11.54 776.76 11.54 776.41 L11.54 775.26
								 C11.54 774.91 11.78 774.68 12.12 774.68 L15.01 774.68 C15.35 774.68 15.59 774.91 15.59 775.26 L15.59
								 776.41 ZM21.36 784.5 C21.36 784.84 21.13 785.07 20.78 785.07 L17.89 785.07 C17.55 785.07 17.32 784.84
								 17.32 784.5 L17.32 783.34 C17.32 782.99 17.55 782.76 17.89 782.76 L20.78 782.76 C21.13 782.76 21.36
								 782.99 21.36 783.34 L21.36 784.5 ZM21.36 780.46 C21.36 780.8 21.13 781.03 20.78 781.03 L17.89 781.03
								 C17.55 781.03 17.32 780.8 17.32 780.46 L17.32 779.3 C17.32 778.95 17.55 778.72 17.89 778.72 L20.78
								 778.72 C21.13 778.72 21.36 778.95 21.36 779.3 L21.36 780.46 ZM21.36 776.41 C21.36 776.76 21.13 776.99
								 20.78 776.99 L17.89 776.99 C17.55 776.99 17.32 776.76 17.32 776.41 L17.32 775.26 C17.32 774.91 17.55
								 774.68 17.89 774.68 L20.78 774.68 C21.13 774.68 21.36 774.91 21.36 775.26 L21.36 776.41 ZM23.09
								 770.06 C23.09 770.41 22.86 770.64 22.51 770.64 L5.2 770.64 C4.85 770.64 4.62 770.41 4.62 770.06
								 L4.62 763.71 C4.62 763.37 4.85 763.14 5.2 763.14 L22.51 763.14 C22.86 763.14 23.09 763.37 23.09
								 763.71 L23.09 770.06 Z" class="st8"/>
				</g>
			</g>
		</g>
		<g id="shape26-44" v:mID="26" v:groupContext="shape" transform="translate(285,849.6) rotate(180)">
			<title>Sheet.26</title>
			<path d="M0 792 L129.44 792" class="st1"/>
		</g>
		<g id="group27-47" transform="translate(184.8,-704.4)" v:mID="27" v:groupContext="group">
			<title>On-Premises</title>
			<g id="group28-48" transform="translate(0,-9)" v:mID="28" v:groupContext="group">
				<title>Layer_3_copy_2</title>
				<g id="shape29-49" v:mID="29" v:groupContext="shape">
					<title>Sheet.29</title>
					<rect x="0" y="741" width="36.75" height="51" class="st3"/>
				</g>
				<g id="shape30-51" v:mID="30" v:groupContext="shape" transform="translate(1.5,-1.5)">
					<title>Sheet.30</title>
					<path d="M0 744 L0 792 L33.75 792 L33.75 744 L0 744 ZM10.5 779.25 L5.25 779.25 L5.25 771.75 L10.5 771.75 L10.5
								 779.25 ZM10.5 768 L5.25 768 L5.25 760.5 L10.5 760.5 L10.5 768 ZM10.5 756.75 L5.25 756.75 L5.25 749.25
								 L10.5 749.25 L10.5 756.75 ZM19.5 779.25 L14.25 779.25 L14.25 771.75 L19.5 771.75 L19.5 779.25 ZM19.5
								 768 L14.25 768 L14.25 760.5 L19.5 760.5 L19.5 768 ZM19.5 756.75 L14.25 756.75 L14.25 749.25 L19.5
								 749.25 L19.5 756.75 ZM28.5 779.25 L23.25 779.25 L23.25 771.75 L28.5 771.75 L28.5 779.25 ZM28.5 768
								 L23.25 768 L23.25 760.5 L28.5 760.5 L28.5 768 ZM28.5 756.75 L23.25 756.75 L23.25 749.25 L28.5 749.25
								 L28.5 756.75 Z" class="st9"/>
				</g>
			</g>
			<g id="group31-53" transform="translate(24.75,0)" v:mID="31" v:groupContext="group">
				<title>Layer_10</title>
				<g id="shape32-54" v:mID="32" v:groupContext="shape">
					<title>Sheet.32</title>
					<rect x="0" y="750" width="23.25" height="42" class="st3"/>
				</g>
				<g id="shape33-56" v:mID="33" v:groupContext="shape" transform="translate(1.5,-1.5)">
					<title>Sheet.33</title>
					<rect x="0" y="753" width="20.25" height="39" class="st9"/>
				</g>
				<g id="shape34-58" v:mID="34" v:groupContext="shape" transform="translate(3,-33)">
					<title>Sheet.34</title>
					<rect x="0" y="786" width="17.25" height="6" class="st3"/>
				</g>
				<g id="shape35-60" v:mID="35" v:groupContext="shape" transform="translate(3,-27.75)">
					<title>Sheet.35</title>
					<rect x="0" y="788.25" width="17.25" height="3.75" class="st3"/>
				</g>
				<g id="shape36-62" v:mID="36" v:groupContext="shape" transform="translate(3,-22.5)">
					<title>Sheet.36</title>
					<rect x="0" y="788.25" width="17.25" height="3.75" class="st3"/>
				</g>
				<g id="shape37-64" v:mID="37" v:groupContext="shape" transform="translate(3,-3)">
					<title>Sheet.37</title>
					<rect x="0" y="774" width="17.25" height="18" class="st3"/>
				</g>
				<g id="shape38-66" v:mID="38" v:groupContext="shape" transform="translate(8.25,-35.25)">
					<title>Sheet.38</title>
					<rect x="0" y="790.5" width="7.5" height="1.5" class="st9"/>
				</g>
				<g id="shape39-68" v:mID="39" v:groupContext="shape" transform="translate(5.25,-5.25)">
					<title>Sheet.39</title>
					<rect x="0" y="787.5" width="3" height="4.5" class="st9"/>
				</g>
			</g>
		</g>
		<g id="group60-70" transform="translate(373.8,-508.498)" v:mID="60" v:groupContext="group" v:layerMember="0">
			<title>Device, Phone, Digital</title>
			<g id="group61-71" v:mID="61" v:groupContext="group" v:layerMember="0">
				<title>Sheet.61</title>
				<g id="shape62-72" v:mID="62" v:groupContext="shape" v:layerMember="0">
					<title>Sheet.62</title>
					<path d="M37 756.27 L13.91 756.27 C12.58 756.27 11.37 756.9 10.62 757.94 C10.1 757.37 9.41 756.9 8.54 756.61
								 C7.62 756.33 7.1 756.27 5.83 756.27 C4.56 756.27 4.04 756.33 3.12 756.61 C1.27 757.19 0.17 758.52
								 0.06 760.42 C0 761.06 0.06 761.87 0.12 763.37 C0.17 765.39 0.29 768.74 0.29 774.51 C0.29 779.13
								 0.17 782.19 0.12 784.15 C0.06 785.77 -0 786.86 0.06 787.73 C0.17 789.69 1.33 791.08 3.17 791.6 C4.1
								 791.88 4.91 792 5.77 792 C6.7 792 7.62 791.88 8.54 791.6 C9.41 791.37 10.16 790.9 10.68 790.27 C11.43
								 791.31 12.58 791.94 13.97 791.94 L37.06 791.94 C39.31 791.94 41.1 790.15 41.1 787.9 L41.1 760.31
								 C41.04 758.06 39.25 756.27 37 756.27 Z" class="st3"/>
				</g>
				<g id="shape63-74" v:mID="63" v:groupContext="shape" v:layerMember="0" transform="translate(1.67402,-1.67402)">
					<title>Sheet.63</title>
					<path d="M8.2 762.27 C8.08 761 7.45 760.31 6.35 759.96 C5.66 759.73 5.31 759.67 4.16 759.67 C3 759.67 2.66 759.73
								 1.96 759.96 C0.87 760.31 0.17 761 0.12 762.27 C0 763.66 0.35 766.49 0.35 776.24 C0.35 784.5 -0 787.5
								 0.12 789.4 C0.17 790.67 0.87 791.42 1.96 791.71 C2.66 791.88 3.35 792 4.1 792 C4.85 792 5.66 791.88
								 6.41 791.71 C7.5 791.42 8.2 790.67 8.25 789.4 C8.37 787.5 8.08 784.67 8.08 776.41 C8.02 766.66 8.31
								 763.66 8.2 762.27 Z" class="st8"/>
				</g>
				<g id="shape64-76" v:mID="64" v:groupContext="shape" v:layerMember="0" transform="translate(11.6027,-1.67402)">
					<title>Sheet.64</title>
					<path d="M25.4 759.67 L2.31 759.67 C1.04 759.67 -0 760.71 0 761.98 L0 789.69 C-0 790.96 1.04 792 2.31 792 L25.4
								 792 C26.67 792 27.71 790.96 27.71 789.69 L27.71 761.98 C27.71 760.71 26.67 759.67 25.4 759.67 ZM9.81
								 784.5 C9.81 784.84 9.58 785.07 9.24 785.07 L6.35 785.07 C6 785.07 5.77 784.84 5.77 784.5 L5.77 783.34
								 C5.77 782.99 6 782.76 6.35 782.76 L9.24 782.76 C9.58 782.76 9.81 782.99 9.81 783.34 L9.81 784.5
								 ZM9.81 780.46 C9.81 780.8 9.58 781.03 9.24 781.03 L6.35 781.03 C6 781.03 5.77 780.8 5.77 780.46
								 L5.77 779.3 C5.77 778.95 6 778.72 6.35 778.72 L9.24 778.72 C9.58 778.72 9.81 778.95 9.81 779.3 L9.81
								 780.46 ZM9.81 776.41 C9.81 776.76 9.58 776.99 9.24 776.99 L6.35 776.99 C6 776.99 5.77 776.76 5.77
								 776.41 L5.77 775.26 C5.77 774.91 6 774.68 6.35 774.68 L9.24 774.68 C9.58 774.68 9.81 774.91 9.81
								 775.26 L9.81 776.41 ZM15.59 784.5 C15.59 784.84 15.35 785.07 15.01 785.07 L12.12 785.07 C11.78 785.07
								 11.54 784.84 11.54 784.5 L11.54 783.34 C11.54 782.99 11.78 782.76 12.12 782.76 L15.01 782.76 C15.35
								 782.76 15.59 782.99 15.59 783.34 L15.59 784.5 ZM15.59 780.46 C15.59 780.8 15.35 781.03 15.01 781.03
								 L12.12 781.03 C11.78 781.03 11.54 780.8 11.54 780.46 L11.54 779.3 C11.54 778.95 11.78 778.72 12.12
								 778.72 L15.01 778.72 C15.35 778.72 15.59 778.95 15.59 779.3 L15.59 780.46 ZM15.59 776.41 C15.59
								 776.76 15.35 776.99 15.01 776.99 L12.12 776.99 C11.78 776.99 11.54 776.76 11.54 776.41 L11.54 775.26
								 C11.54 774.91 11.78 774.68 12.12 774.68 L15.01 774.68 C15.35 774.68 15.59 774.91 15.59 775.26 L15.59
								 776.41 ZM21.36 784.5 C21.36 784.84 21.13 785.07 20.78 785.07 L17.89 785.07 C17.55 785.07 17.32 784.84
								 17.32 784.5 L17.32 783.34 C17.32 782.99 17.55 782.76 17.89 782.76 L20.78 782.76 C21.13 782.76 21.36
								 782.99 21.36 783.34 L21.36 784.5 ZM21.36 780.46 C21.36 780.8 21.13 781.03 20.78 781.03 L17.89 781.03
								 C17.55 781.03 17.32 780.8 17.32 780.46 L17.32 779.3 C17.32 778.95 17.55 778.72 17.89 778.72 L20.78
								 778.72 C21.13 778.72 21.36 778.95 21.36 779.3 L21.36 780.46 ZM21.36 776.41 C21.36 776.76 21.13 776.99
								 20.78 776.99 L17.89 776.99 C17.55 776.99 17.32 776.76 17.32 776.41 L17.32 775.26 C17.32 774.91 17.55
								 774.68 17.89 774.68 L20.78 774.68 C21.13 774.68 21.36 774.91 21.36 775.26 L21.36 776.41 ZM23.09
								 770.06 C23.09 770.41 22.86 770.64 22.51 770.64 L5.2 770.64 C4.85 770.64 4.62 770.41 4.62 770.06
								 L4.62 763.71 C4.62 763.37 4.85 763.14 5.2 763.14 L22.51 763.14 C22.86 763.14 23.09 763.37 23.09
								 763.71 L23.09 770.06 Z" class="st8"/>
				</g>
			</g>
		</g>
		<g id="group22-78" transform="translate(254.827,-687.235)" v:mID="22" v:groupContext="group" v:layerMember="0">
			<title>Cloud</title>
			<g id="group23-79" v:mID="23" v:groupContext="group" v:layerMember="0">
				<title>Sheet.23</title>
				<g id="shape24-80" v:mID="24" v:groupContext="shape" v:layerMember="0">
					<title>Sheet.24</title>
					<path d="M20.67 792 C9.28 792 0 782.3 0 770.34 C0 758.67 8.72 749.25 19.55 748.69 C22.92 744.75 27.42 742.5 32.48
								 742.08 C34.87 731.25 44.16 723.23 54.98 723.23 C62.16 723.23 68.77 726.75 73.12 732.66 C75.09 732.09
								 77.06 731.81 79.03 731.81 C91.41 731.81 101.53 742.5 101.53 755.44 C106.59 759.23 109.55 765.28
								 109.55 771.75 C109.55 781.03 103.64 789.05 95.06 791.3 L94.92 791.3 L92.11 791.86 L20.67 791.86
								 L20.67 792 Z" class="st3"/>
				</g>
				<g id="shape25-82" v:mID="25" v:groupContext="shape" v:layerMember="0" transform="translate(4.21872,-4.21872)">
					<title>Sheet.25</title>
					<path d="M93.09 761.91 C93.23 761.2 93.23 760.5 93.23 759.8 C93.23 748.97 85.08 740.25 74.95 740.25 C72.28 740.25
								 69.75 740.81 67.36 742.08 C63.98 735.75 57.8 731.67 50.91 731.67 C40.78 731.67 32.62 740.11 31.92
								 750.66 C31.08 750.52 30.37 750.38 29.53 750.38 C24.75 750.38 20.25 752.91 17.44 756.98 C17.02 756.98
								 16.73 756.98 16.31 756.98 C7.31 757.13 0 765 0 774.56 C0 784.13 7.31 792 16.45 792 L87.61 792 L89.86
								 791.58 C96.61 789.75 101.25 783.42 101.25 776.11 C101.25 770.06 98.01 764.58 93.09 761.91 ZM88.87
								 787.5 L87.19 787.78 L16.45 787.78 C9.7 787.78 4.22 781.88 4.22 774.56 C4.22 767.25 9.56 761.34 16.31
								 761.34 C16.59 761.34 16.87 761.34 17.16 761.34 L19.55 761.48 L20.95 759.38 C22.92 756.28 26.16 754.59
								 29.53 754.59 C30.09 754.59 30.66 754.59 31.22 754.73 L35.86 755.58 L36.14 750.8 C36.56 742.36 43.03
								 735.75 50.91 735.75 C56.11 735.75 61.03 738.84 63.56 743.91 L65.53 747.56 L69.19 745.73 C71.02 744.89
								 72.98 744.33 74.95 744.33 C82.69 744.33 89.02 751.22 89.02 759.66 C89.02 760.22 89.02 760.78 88.87
								 761.34 L88.59 764.16 L91.12 765.56 C94.78 767.53 97.03 771.61 97.03 775.97 C97.03 781.45 93.66 786.09
								 88.87 787.5 Z" class="st3"/>
				</g>
			</g>
		</g>
	</g>
</svg>
